<svg width="24" height="24" viewBox="0 0 24 24" fill="none" xmlns="http://www.w3.org/2000/svg">
    <g clip-path="url(#clip0_976_26343)">
        <g clip-path="url(#clip1_976_26343)">
            <path d="M14 2H6C5.46957 2 4.96086 2.21071 4.58579 2.58579C4.21071 2.96086 4 3.46957 4 4V20C4 20.5304 4.21071 21.0391 4.58579 21.4142C4.96086 21.7893 5.46957 22 6 22H18C18.5304 22 19.0391 21.7893 19.4142 21.4142C19.7893 21.0391 20 20.5304 20 20V8L14 2Z"
                  stroke="#5F5F5F" stroke-width="2" stroke-linecap="round" stroke-linejoin="round"/>
            <path d="M14 2V8H20" stroke="#5F5F5F" stroke-width="2" stroke-linecap="round" stroke-linejoin="round"/>
            <path d="M10.3731 16.8076V16.7079C10.3806 16.0568 10.4507 15.5387 10.5831 15.1537C10.7194 14.7687 10.9124 14.4571 11.1622 14.2191C11.412 13.9811 11.7129 13.764 12.0649 13.568C12.292 13.435 12.4964 13.2862 12.678 13.1217C12.8597 12.9572 13.0035 12.7682 13.1095 12.5547C13.2155 12.3411 13.2685 12.1049 13.2685 11.8458C13.2685 11.5343 13.189 11.2648 13.03 11.0372C12.871 10.8097 12.6591 10.6347 12.3942 10.5122C12.133 10.3862 11.8416 10.3232 11.5199 10.3232C11.2284 10.3232 10.9503 10.3792 10.6853 10.4912C10.4204 10.6032 10.2009 10.7782 10.0268 11.0162C9.85266 11.2508 9.75237 11.5535 9.72587 11.9246H8C8.02649 11.2945 8.1987 10.7625 8.51663 10.3284C8.83455 9.89085 9.25466 9.56006 9.77697 9.33604C10.3031 9.11201 10.884 9 11.5199 9C12.2163 9 12.8256 9.12076 13.3479 9.36229C13.8702 9.60032 14.2752 9.93461 14.5629 10.3652C14.8543 10.7922 15 11.291 15 11.8616C15 12.2536 14.9338 12.6072 14.8013 12.9222C14.6688 13.2337 14.4796 13.512 14.2336 13.757C13.9913 14.0021 13.6999 14.2191 13.3593 14.4081C13.0376 14.5936 12.7764 14.7862 12.5758 14.9857C12.379 15.1852 12.2352 15.4215 12.1444 15.6945C12.0535 15.9675 12.0043 16.3053 11.9968 16.7079V16.8076H10.3731ZM11.2303 20C10.92 20 10.6531 19.8985 10.4298 19.6955C10.2065 19.4889 10.0949 19.2404 10.0949 18.9499C10.0949 18.6628 10.2065 18.4178 10.4298 18.2148C10.6531 18.0083 10.92 17.905 11.2303 17.905C11.5369 17.905 11.8018 18.0083 12.0251 18.2148C12.2522 18.4178 12.3658 18.6628 12.3658 18.9499C12.3658 19.1424 12.3128 19.3192 12.2068 19.4802C12.1046 19.6377 11.9684 19.7637 11.7981 19.8582C11.6277 19.9527 11.4385 20 11.2303 20Z"
                  fill="#E06017"/>
        </g>
    </g>
    <defs>
        <clipPath id="clip0_976_26343">
            <rect width="24" height="24" fill="white"/>
        </clipPath>
        <clipPath id="clip1_976_26343">
            <rect width="24" height="24" fill="white"/>
        </clipPath>
    </defs>
</svg>
