<svg width="24" height="24" viewBox="0 0 24 24" fill="none" xmlns="http://www.w3.org/2000/svg">
    <path d="M18 12H12" stroke="#5F5F5F" stroke-width="2" stroke-linecap="round" stroke-linejoin="round"/>
    <path d="M18 15H12" stroke="#5F5F5F" stroke-width="2" stroke-linecap="round" stroke-linejoin="round"/>
    <path d="M18 18H12" stroke="#5F5F5F" stroke-width="2" stroke-linecap="round" stroke-linejoin="round"/>
    <path d="M19.8462 8H10.1538C8.96431 8 8 8.96431 8 10.1538V19.8462C8 21.0357 8.96431 22 10.1538 22H19.8462C21.0357 22 22 21.0357 22 19.8462V10.1538C22 8.96431 21.0357 8 19.8462 8Z"
          stroke="#5F5F5F" stroke-width="2" stroke-linecap="round" stroke-linejoin="round"/>
    <path d="M5 15H4C3.46957 15 2.96086 14.7893 2.58579 14.4142C2.21071 14.0391 2 13.5304 2 13V4C2 3.46957 2.21071 2.96086 2.58579 2.58579C2.96086 2.21071 3.46957 2 4 2H13C13.5304 2 14.0391 2.21071 14.4142 2.58579C14.7893 2.96086 15 3.46957 15 4V5"
          stroke="#5F5F5F" stroke-width="2" stroke-linecap="round" stroke-linejoin="round"/>
</svg>
