<svg width="24" height="24" viewBox="0 0 24 24" fill="none" xmlns="http://www.w3.org/2000/svg">
    <path fill-rule="evenodd" clip-rule="evenodd"
          d="M5 3C3.89543 3 3 3.89543 3 5V19C3 20.1046 3.89543 21 5 21H19C20.1046 21 21 20.1046 21 19V5C21 3.89543 20.1046 3 19 3H5ZM12.9075 16.035C10.785 14.9475 9.045 13.215 7.965 11.0925L9.615 9.4425C9.825 9.2325 9.885 8.94 9.8025 8.6775C9.525 7.8375 9.375 6.9375 9.375 6C9.375 5.5875 9.0375 5.25 8.625 5.25H6C5.5875 5.25 5.25 5.5875 5.25 6C5.25 13.0425 10.9575 18.75 18 18.75C18.4125 18.75 18.75 18.4125 18.75 18V15.3825C18.75 14.97 18.4125 14.6325 18 14.6325C17.07 14.6325 16.1625 14.4825 15.3225 14.205C15.06 14.115 14.76 14.1825 14.5575 14.385L12.9075 16.035Z"
          fill="#EA5B0C"/>
</svg>
