<svg width="16" height="15" viewBox="0 0 16 15" fill="none" xmlns="http://www.w3.org/2000/svg">
<g id="printer" clip-path="url(#clip0_4785_487)">
<g id="Vector">
<path d="M4 6V1H12V6" fill="#EDF1F5"/>
<path d="M4 6V1H12V6" stroke="#0E1C2C" stroke-linecap="round" stroke-linejoin="round"/>
</g>
<g id="Vector_2">
<path d="M3.8 12H2.4C2.0287 12 1.6726 11.8595 1.41005 11.6095C1.1475 11.3594 1 11.0203 1 10.6667V7.33333C1 6.97971 1.1475 6.64057 1.41005 6.39052C1.6726 6.14048 2.0287 6 2.4 6H13.6C13.9713 6 14.3274 6.14048 14.5899 6.39052C14.8525 6.64057 15 6.97971 15 7.33333V10.6667C15 11.0203 14.8525 11.3594 14.5899 11.6095C14.3274 11.8595 13.9713 12 13.6 12H12.2" fill="#7091B7"/>
<path d="M3.8 12H2.4C2.0287 12 1.6726 11.8595 1.41005 11.6095C1.1475 11.3594 1 11.0203 1 10.6667V7.33333C1 6.97971 1.1475 6.64057 1.41005 6.39052C1.6726 6.14048 2.0287 6 2.4 6H13.6C13.9713 6 14.3274 6.14048 14.5899 6.39052C14.8525 6.64057 15 6.97971 15 7.33333V10.6667C15 11.0203 14.8525 11.3594 14.5899 11.6095C14.3274 11.8595 13.9713 12 13.6 12H12.2" stroke="#0E1C2C" stroke-linecap="round" stroke-linejoin="round"/>
</g>
<path id="Vector_3" d="M12 9H4V14H12V9Z" fill="#7091B7" stroke="#0E1C2C" stroke-linecap="round" stroke-linejoin="round"/>
</g>
<defs>
<clipPath id="clip0_4785_487">
<rect width="16" height="15" fill="white"/>
</clipPath>
</defs>
</svg>
