<svg width="24" height="24" viewBox="0 0 24 24" fill="none" xmlns="http://www.w3.org/2000/svg">
    <path d="M4.22222 2.3H8.86667C9.33333 0.966 10.5556 0 12 0C13.4444 0 14.6667 0.966 15.1333 2.3H19.7778C21 2.3 22 3.335 22 4.6V20.7C22 21.965 21 23 19.7778 23H4.22222C3 23 2 21.965 2 20.7V4.6C2 3.335 3 2.3 4.22222 2.3ZM12 2.3C11.3889 2.3 10.8889 2.8175 10.8889 3.45C10.8889 4.0825 11.3889 4.6 12 4.6C12.6111 4.6 13.1111 4.0825 13.1111 3.45C13.1111 2.8175 12.6111 2.3 12 2.3Z"
          fill="#E06017"/>
    <path d="M10.7121 16.2272V16.1093C10.7207 15.3399 10.8008 14.7276 10.9521 14.2726C11.1079 13.8175 11.3285 13.4493 11.6139 13.168C11.8994 12.8867 12.2433 12.6302 12.6456 12.3986C12.9051 12.2414 13.1387 12.0656 13.3463 11.8711C13.5539 11.6767 13.7183 11.4533 13.8394 11.201C13.9605 10.9486 14.0211 10.6694 14.0211 10.3632C14.0211 9.99507 13.9303 9.67653 13.7486 9.40764C13.5669 9.13874 13.3247 8.9319 13.0219 8.78711C12.7234 8.63819 12.3904 8.56372 12.0227 8.56372C11.6896 8.56372 11.3717 8.62991 11.0689 8.76229C10.7662 8.89467 10.5153 9.10151 10.3163 9.38282C10.1173 9.65998 10.0027 10.0178 9.97242 10.4563H8C8.03028 9.71169 8.22709 9.0829 8.59043 8.56993C8.95377 8.05282 9.4339 7.66189 10.0308 7.39714C10.6321 7.13238 11.296 7 12.0227 7C12.8186 7 13.515 7.14272 14.1119 7.42816C14.7088 7.70947 15.1717 8.10453 15.5004 8.61337C15.8335 9.11806 16 9.70756 16 10.3819C16 10.8452 15.9243 11.263 15.7729 11.6353C15.6215 12.0035 15.4052 12.3324 15.1241 12.622C14.8473 12.9115 14.5142 13.168 14.1249 13.3914C13.7572 13.6107 13.4588 13.8382 13.2295 14.074C13.0046 14.3098 12.8402 14.589 12.7364 14.9117C12.6326 15.2344 12.5764 15.6336 12.5677 16.1093V16.2272H10.7121ZM11.6918 20C11.3371 20 11.0322 19.88 10.777 19.6401C10.5218 19.396 10.3942 19.1023 10.3942 18.7589C10.3942 18.4197 10.5218 18.1301 10.777 17.8902C11.0322 17.6461 11.3371 17.5241 11.6918 17.5241C12.0422 17.5241 12.345 17.6461 12.6002 17.8902C12.8597 18.1301 12.9895 18.4197 12.9895 18.7589C12.9895 18.9865 12.9289 19.1954 12.8078 19.3857C12.691 19.5718 12.5353 19.7208 12.3406 19.8325C12.146 19.9442 11.9297 20 11.6918 20Z"
          fill="#F6F6F6"/>
</svg>
