<svg width="24" height="24" viewBox="0 0 24 24" fill="none" xmlns="http://www.w3.org/2000/svg">
    <path d="M4.22222 2.3H8.86667C9.33333 0.966 10.5556 0 12 0C13.4444 0 14.6667 0.966 15.1333 2.3H19.7778C21 2.3 22 3.335 22 4.6V20.7C22 21.965 21 23 19.7778 23H4.22222C3 23 2 21.965 2 20.7V4.6C2 3.335 3 2.3 4.22222 2.3ZM12 2.3C11.3889 2.3 10.8889 2.8175 10.8889 3.45C10.8889 4.0825 11.3889 4.6 12 4.6C12.6111 4.6 13.1111 4.0825 13.1111 3.45C13.1111 2.8175 12.6111 2.3 12 2.3Z"
          fill="#4061A5"/>
    <path fill-rule="evenodd" clip-rule="evenodd"
          d="M12 8.75C9.1005 8.75 6.75 11.1005 6.75 14C6.75 16.8995 9.1005 19.25 12 19.25C14.8995 19.25 17.25 16.8995 17.25 14C17.25 11.1005 14.8995 8.75 12 8.75ZM5 14C5 10.134 8.13401 7 12 7C15.866 7 19 10.134 19 14C19 17.866 15.866 21 12 21C8.13401 21 5 17.866 5 14Z"
          fill="#EDF1F5"/>
    <path fill-rule="evenodd" clip-rule="evenodd"
          d="M15.5354 11.1938C15.8771 11.5355 15.8771 12.0895 15.5354 12.4312L11.5249 16.4416C11.1832 16.7833 10.6292 16.7833 10.2875 16.4416L8.46459 14.6187C8.12289 14.277 8.12289 13.723 8.46459 13.3813C8.8063 13.0396 9.36032 13.0396 9.70203 13.3813L10.9062 14.5855L14.2979 11.1938C14.6396 10.8521 15.1937 10.8521 15.5354 11.1938Z"
          fill="white"/>
</svg>
