<svg width="24" height="24" viewBox="0 0 24 24" fill="none" xmlns="http://www.w3.org/2000/svg">
    <path d="M4.22222 2.3H8.86667C9.33333 0.966 10.5556 0 12 0C13.4444 0 14.6667 0.966 15.1333 2.3H19.7778C21 2.3 22 3.335 22 4.6V20.7C22 21.965 21 23 19.7778 23H4.22222C3 23 2 21.965 2 20.7V4.6C2 3.335 3 2.3 4.22222 2.3ZM12 2.3C11.3889 2.3 10.8889 2.8175 10.8889 3.45C10.8889 4.0825 11.3889 4.6 12 4.6C12.6111 4.6 13.1111 4.0825 13.1111 3.45C13.1111 2.8175 12.6111 2.3 12 2.3Z"
          fill="#5F5F5F"/>
    <rect width="14" height="14" transform="translate(5 6)" fill="#5F5F5F"/>
    <path fill-rule="evenodd" clip-rule="evenodd"
          d="M17.8333 13C17.8333 16.2217 15.2216 18.8333 12 18.8333C8.7783 18.8333 6.16663 16.2217 6.16663 13C6.16663 9.77833 8.7783 7.16666 12 7.16666C15.2216 7.16666 17.8333 9.77833 17.8333 13ZM13 10.0833C13 9.53104 12.5523 9.08332 12 9.08332C11.4477 9.08332 11 9.53104 11 10.0833V13.5833C11 13.9621 11.214 14.3084 11.5528 14.4778L13.8861 15.6444C14.3801 15.8914 14.9807 15.6912 15.2277 15.1972C15.4747 14.7032 15.2745 14.1026 14.7805 13.8556L13 12.9653V10.0833Z"
          fill="#EDF1F5"/>
</svg>
