<svg width="24" height="24" viewBox="0 0 24 24" fill="none" xmlns="http://www.w3.org/2000/svg">
    <path d="M4.22222 2.3H8.86667C9.33333 0.966 10.5556 0 12 0C13.4444 0 14.6667 0.966 15.1333 2.3H19.7778C21 2.3 22 3.335 22 4.6V20.7C22 21.965 21 23 19.7778 23H4.22222C3 23 2 21.965 2 20.7V4.6C2 3.335 3 2.3 4.22222 2.3ZM12 2.3C11.3889 2.3 10.8889 2.8175 10.8889 3.45C10.8889 4.0825 11.3889 4.6 12 4.6C12.6111 4.6 13.1111 4.0825 13.1111 3.45C13.1111 2.8175 12.6111 2.3 12 2.3Z"
          fill="#5F5F5F"/>
    <path d="M17 13L7 13" stroke="#F6F6F6" stroke-width="2" stroke-linecap="round" stroke-linejoin="round"/>
    <path d="M17 8L7 8" stroke="#F6F6F6" stroke-width="2" stroke-linecap="round" stroke-linejoin="round"/>
    <path d="M9 18L8 18L7 18" stroke="#F6F6F6" stroke-width="2" stroke-linecap="round" stroke-linejoin="round"/>
</svg>
