<svg width="24" height="24" viewBox="0 0 24 24" fill="none" xmlns="http://www.w3.org/2000/svg">
    <path d="M4.22222 2.3H8.86667C9.33333 0.966 10.5556 0 12 0C13.4444 0 14.6667 0.966 15.1333 2.3H19.7778C21 2.3 22 3.335 22 4.6V20.7C22 21.965 21 23 19.7778 23H4.22222C3 23 2 21.965 2 20.7V4.6C2 3.335 3 2.3 4.22222 2.3ZM12 2.3C11.3889 2.3 10.8889 2.8175 10.8889 3.45C10.8889 4.0825 11.3889 4.6 12 4.6C12.6111 4.6 13.1111 4.0825 13.1111 3.45C13.1111 2.8175 12.6111 2.3 12 2.3Z"
          fill="#16B025"/>
    <path d="M7.34497 19.6364V6H12.4586C13.5062 6 14.3851 6.19531 15.0953 6.58594C15.81 6.97656 16.3493 7.51367 16.7133 8.19726C17.0817 8.87642 17.266 9.64879 17.266 10.5144C17.266 11.3888 17.0817 12.1657 16.7133 12.8448C16.3449 13.524 15.8011 14.0589 15.082 14.4495C14.3629 14.8357 13.4773 15.0288 12.4253 15.0288H9.0362V12.998H12.0924C12.705 12.998 13.2066 12.8914 13.5972 12.6784C13.9878 12.4653 14.2763 12.1723 14.4628 11.7994C14.6536 11.4266 14.7491 10.9982 14.7491 10.5144C14.7491 10.0305 14.6536 9.6044 14.4628 9.23597C14.2763 8.86754 13.9856 8.58123 13.5905 8.37704C13.1999 8.16841 12.6961 8.0641 12.0791 8.0641H9.81523V19.6364H7.34497Z"
          fill="white"/>
    <path fill-rule="evenodd" clip-rule="evenodd" d="M15.375 17.8785H6V16.7067H15.375V17.8785Z" fill="white"/>
</svg>
