<svg width="30" height="22" viewBox="0 0 30 22" fill="none" xmlns="http://www.w3.org/2000/svg">
<g clip-path="url(#clip0_3890_126)">
<path d="M30 21.9999H22.9999C24.2499 20.9397 26.2499 18.2007 26.9999 16.9638C27.75 15.7268 29.75 11.3975 30 9.80713V21.9999Z" fill="white"/>
<path d="M28.7502 0H24.0002C24.0002 1.3253 24.0002 6.09639 21.5001 11.3976C19.2198 16.233 14.3335 20.5863 12.2501 22H19.5001C21.7501 20.1446 24.5923 16.1687 26.2502 12.4578C28.5002 7.42169 28.7502 2.73896 28.7502 0Z" fill="#EB3125"/>
<path fill-rule="evenodd" clip-rule="evenodd" d="M0 22V0H14.5C14.6667 2.03213 14.35 6.89157 11.75 10.0723C9.15002 13.253 5.66668 14.4016 4.25001 14.5783V22H0ZM3.99999 10.6024V3.4458H10C10 5.30122 9.19028 6.56788 8.50001 7.4217C7 9.27713 5.5 10.0723 3.99999 10.6024Z" fill="white"/>
<path d="M21.25 0H16.5C16.25 3.9759 16.3 6.46747 14.5 10.0723C12.7 13.6771 8.58334 15.8153 6.75 16.4337V22C9.50001 21.2048 13.8472 19.0843 18 12.988C20.6 9.17108 21.1667 2.6506 21.25 0Z" fill="#1183D3"/>
</g>
<defs>
<clipPath id="clip0_3890_126">
<rect width="30" height="22" rx="2" fill="white"/>
</clipPath>
</defs>
</svg>
