<svg xmlns="http://www.w3.org/2000/svg" width="152" height="28" viewBox="0 0 152 28" fill="none">
<path d="M37.906 11.8475C31.3136 2.39613 10.7126 4.03986 0 10.2038C9.4765 7.3273 20.1891 9.38195 27.1934 12.6694C34.1978 15.9568 33.3738 22.1208 31.3136 27.4629C44.9104 24.1755 45.7344 15.5459 45.7344 11.8475C45.7344 8.53451 46.5585 3.62892 53.1508 0.752411C45.3224 -0.480385 41.2022 3.62892 37.906 11.8475Z" fill="#EDF1F5"/>
<path d="M58.9041 11.4803C58.8623 10.9622 58.6665 10.558 58.3165 10.2678C57.9717 9.97769 57.4468 9.83261 56.7416 9.83261C56.2924 9.83261 55.9241 9.88701 55.6368 9.99582C55.3548 10.0995 55.1458 10.2419 55.01 10.4233C54.8742 10.6046 54.8037 10.8119 54.7985 11.0451C54.788 11.2368 54.822 11.4104 54.9003 11.5658C54.9839 11.7161 55.1145 11.8534 55.2921 11.9777C55.4697 12.0969 55.6969 12.2057 55.9738 12.3041C56.2506 12.4026 56.5797 12.4907 56.961 12.5684L58.2773 12.8482C59.1653 13.0347 59.9253 13.2808 60.5573 13.5866C61.1894 13.8923 61.7065 14.2524 62.1087 14.6669C62.5109 15.0762 62.8061 15.5374 62.9941 16.0503C63.1874 16.5633 63.2866 17.1229 63.2918 17.7291C63.2866 18.7758 63.0228 19.6618 62.5005 20.3872C61.9781 21.1126 61.2312 21.6644 60.2596 22.0426C59.2933 22.4209 58.131 22.61 56.7729 22.61C55.3783 22.61 54.1612 22.4053 53.1217 21.996C52.0875 21.5867 51.2831 20.9571 50.7085 20.1074C50.1391 19.2524 49.8518 18.1592 49.8466 16.8275H53.9836C54.0097 17.3146 54.1325 17.7239 54.3519 18.0555C54.5712 18.3871 54.8794 18.6384 55.2764 18.8094C55.6786 18.9804 56.1566 19.0659 56.7103 19.0659C57.1752 19.0659 57.5643 19.0089 57.8777 18.8949C58.1911 18.7809 58.4288 18.6229 58.5907 18.4208C58.7526 18.2187 58.8362 17.9882 58.8414 17.7291C58.8362 17.4856 58.7553 17.2731 58.5985 17.0918C58.4471 16.9053 58.1963 16.7394 57.8464 16.5944C57.4964 16.4441 57.0237 16.3042 56.4282 16.1747L54.8298 15.8327C53.409 15.527 52.2886 15.0166 51.4685 14.3016C50.6536 13.5814 50.2488 12.5995 50.254 11.3559C50.2488 10.3456 50.5204 9.46214 51.0689 8.70565C51.6226 7.94398 52.3878 7.35071 53.3646 6.92583C54.3466 6.50095 55.4723 6.28851 56.7416 6.28851C58.037 6.28851 59.1575 6.50354 60.1029 6.9336C61.0484 7.36366 61.777 7.96989 62.2889 8.75228C62.8061 9.5295 63.0672 10.4388 63.0725 11.4803H58.9041Z" fill="#F5F5F5"/>
<path d="M68.4925 22.4235H63.7913L69.0879 6.50613H75.0427L80.3393 22.4235H75.6382L72.128 10.8896H72.0026L68.4925 22.4235ZM67.6149 16.1436H76.453V19.3768H67.6149V16.1436Z" fill="#F5F5F5"/>
<path d="M79.4206 9.98805V6.50613H93.3673V9.98805H88.5408V22.4235H84.2471V9.98805H79.4206Z" fill="#F5F5F5"/>
<path d="M95.0381 22.4235V19.3146L101.024 14.4026C101.421 14.0762 101.761 13.7705 102.043 13.4855C102.33 13.1954 102.549 12.8974 102.701 12.5917C102.858 12.286 102.936 11.9466 102.936 11.5736C102.936 11.1642 102.847 10.8145 102.67 10.5243C102.497 10.2342 102.257 10.0114 101.949 9.85593C101.641 9.6953 101.285 9.61499 100.883 9.61499C100.481 9.61499 100.126 9.6953 99.8176 9.85593C99.5147 10.0165 99.2796 10.2523 99.1125 10.5632C98.9453 10.8741 98.8617 11.2523 98.8617 11.6979H94.7247C94.7247 10.5787 94.9781 9.61499 95.4847 8.80669C95.9914 7.99838 96.707 7.37661 97.6316 6.94137C98.5562 6.50613 99.64 6.28851 100.883 6.28851C102.168 6.28851 103.281 6.49318 104.221 6.90251C105.166 7.30666 105.895 7.87662 106.407 8.61238C106.924 9.34815 107.183 10.2109 107.183 11.2005C107.183 11.8119 107.055 12.4207 106.799 13.027C106.543 13.628 106.083 14.2938 105.42 15.0244C104.756 15.755 103.814 16.6255 102.591 17.6358L101.087 18.8794V18.9726H107.355V22.4235H95.0381Z" fill="#F5F5F5"/>
<path d="M116.291 22.8587C114.834 22.8535 113.575 22.5193 112.515 21.8561C111.454 21.1929 110.637 20.2369 110.062 18.9882C109.488 17.7395 109.203 16.242 109.208 14.4959C109.213 12.7446 109.501 11.2575 110.07 10.0347C110.645 8.81187 111.459 7.8818 112.515 7.24449C113.575 6.60717 114.834 6.28851 116.291 6.28851C117.748 6.28851 119.007 6.60976 120.068 7.25226C121.128 7.88957 121.946 8.81964 122.52 10.0425C123.095 11.2653 123.379 12.7498 123.374 14.4959C123.374 16.2524 123.087 17.755 122.512 19.0037C121.938 20.2525 121.12 21.2084 120.06 21.8717C119.005 22.5297 117.748 22.8587 116.291 22.8587ZM116.291 19.3457C117.043 19.3457 117.66 18.9571 118.14 18.1799C118.626 17.3975 118.866 16.1695 118.861 14.4959C118.861 13.4026 118.751 12.5088 118.532 11.8145C118.313 11.1202 118.01 10.6072 117.623 10.2756C117.237 9.93883 116.793 9.77043 116.291 9.77043C115.539 9.77043 114.925 10.1487 114.45 10.9052C113.975 11.6617 113.732 12.8586 113.721 14.4959C113.716 15.6099 113.823 16.527 114.042 17.2472C114.262 17.9623 114.565 18.4908 114.951 18.8327C115.343 19.1747 115.79 19.3457 116.291 19.3457Z" fill="#F5F5F5"/>
<path d="M125.419 22.4235V19.3146L131.405 14.4026C131.802 14.0762 132.142 13.7705 132.424 13.4855C132.711 13.1954 132.931 12.8974 133.082 12.5917C133.239 12.286 133.317 11.9466 133.317 11.5736C133.317 11.1642 133.228 10.8145 133.051 10.5243C132.878 10.2342 132.638 10.0114 132.33 9.85593C132.022 9.6953 131.666 9.61499 131.264 9.61499C130.862 9.61499 130.507 9.6953 130.199 9.85593C129.896 10.0165 129.661 10.2523 129.493 10.5632C129.326 10.8741 129.243 11.2523 129.243 11.6979H125.106C125.106 10.5787 125.359 9.61499 125.866 8.80669C126.372 7.99838 127.088 7.37661 128.013 6.94137C128.937 6.50613 130.021 6.28851 131.264 6.28851C132.549 6.28851 133.662 6.49318 134.602 6.90251C135.547 7.30666 136.276 7.87662 136.788 8.61238C137.305 9.34815 137.564 10.2109 137.564 11.2005C137.564 11.8119 137.436 12.4207 137.18 13.027C136.924 13.628 136.464 14.2938 135.801 15.0244C135.137 15.755 134.195 16.6255 132.972 17.6358L131.468 18.8794V18.9726H137.736V22.4235H125.419Z" fill="#F5F5F5"/>
<path d="M139.683 22.4235V19.3146L145.669 14.4026C146.066 14.0762 146.406 13.7705 146.688 13.4855C146.975 13.1954 147.195 12.8974 147.346 12.5917C147.503 12.286 147.581 11.9466 147.581 11.5736C147.581 11.1642 147.492 10.8145 147.315 10.5243C147.142 10.2342 146.902 10.0114 146.594 9.85593C146.286 9.6953 145.93 9.61499 145.528 9.61499C145.126 9.61499 144.771 9.6953 144.463 9.85593C144.16 10.0165 143.925 10.2523 143.757 10.5632C143.59 10.8741 143.507 11.2523 143.507 11.6979H139.37C139.37 10.5787 139.623 9.61499 140.13 8.80669C140.636 7.99838 141.352 7.37661 142.277 6.94137C143.201 6.50613 144.285 6.28851 145.528 6.28851C146.813 6.28851 147.926 6.49318 148.866 6.90251C149.811 7.30666 150.54 7.87662 151.052 8.61238C151.569 9.34815 151.828 10.2109 151.828 11.2005C151.828 11.8119 151.7 12.4207 151.444 13.027C151.188 13.628 150.728 14.2938 150.065 15.0244C149.401 15.755 148.459 16.6255 147.236 17.6358L145.732 18.8794V18.9726H152V22.4235H139.683Z" fill="#F5F5F5"/>
</svg>