<svg width="256" height="57" viewBox="0 0 256 57" fill="none" xmlns="http://www.w3.org/2000/svg">
    <path d="M61.6121 25.9046C51.9404 11.9259 21.7165 14.357 6 23.4736C19.903 19.2192 35.6195 22.258 45.8957 27.1202C56.1718 31.9824 54.9628 41.0989 51.9404 49C71.8883 44.1378 73.0972 31.3746 73.0972 25.9046C73.0972 21.0046 74.3062 13.7492 83.9779 9.49483C72.4928 7.67151 66.448 13.7492 61.6121 25.9046Z"
          fill="#EDF1F5"/>
    <path d="M92.4184 25.3616C92.3571 24.5952 92.0698 23.9975 91.5563 23.5683C91.0505 23.1392 90.2804 22.9246 89.2458 22.9246C88.5868 22.9246 88.0465 23.0051 87.625 23.166C87.2112 23.3193 86.9046 23.53 86.7054 23.7982C86.5061 24.0665 86.4027 24.373 86.395 24.7179C86.3797 25.0014 86.4295 25.2581 86.5445 25.488C86.6671 25.7103 86.8587 25.9133 87.1192 26.0973C87.3798 26.2735 87.7131 26.4345 88.1193 26.5801C88.5254 26.7257 89.0082 26.8559 89.5677 26.9709L91.4988 27.3847C92.8016 27.6606 93.9166 28.0246 94.8439 28.4767C95.7712 28.9289 96.5299 29.4615 97.1199 30.0746C97.71 30.68 98.143 31.362 98.4189 32.1207C98.7024 32.8794 98.848 33.707 98.8557 34.6036C98.848 36.1516 98.461 37.4621 97.6947 38.5349C96.9284 39.6078 95.8325 40.424 94.4071 40.9834C92.9894 41.5428 91.2843 41.8225 89.2918 41.8225C87.2457 41.8225 85.4601 41.5198 83.9351 40.9144C82.4177 40.309 81.2376 39.3779 80.3946 38.1211C79.5593 36.8567 79.1378 35.2397 79.1301 33.2702H85.1995C85.2378 33.9906 85.4179 34.596 85.7398 35.0864C86.0617 35.5769 86.5138 35.9486 87.0962 36.2014C87.6863 36.4543 88.3875 36.5808 89.1998 36.5808C89.8819 36.5808 90.4528 36.4965 90.9126 36.3279C91.3724 36.1593 91.7211 35.9256 91.9586 35.6267C92.1962 35.3278 92.3188 34.9868 92.3265 34.6036C92.3188 34.2434 92.2 33.9292 91.9701 33.661C91.7479 33.3851 91.3801 33.1399 90.8666 32.9253C90.3532 32.7031 89.6596 32.4962 88.786 32.3046L86.441 31.7988C84.3566 31.3467 82.7128 30.5918 81.5096 29.5343C80.3141 28.4691 79.7202 27.0169 79.7279 25.1777C79.7202 23.6833 80.1187 22.3767 80.9234 21.2578C81.7357 20.1313 82.8584 19.2539 84.2914 18.6255C85.7321 17.9971 87.3836 17.6829 89.2458 17.6829C91.1463 17.6829 92.7901 18.0009 94.1772 18.637C95.5643 19.273 96.6333 20.1696 97.3843 21.3268C98.143 22.4763 98.5262 23.8212 98.5338 25.3616H92.4184Z"
          fill="#F5F5F5"/>
    <path d="M106.486 41.5467H99.5885L107.359 18.0047H116.095L123.866 41.5467H116.969L111.819 24.488H111.635L106.486 41.5467ZM105.198 32.2586H118.165V37.0406H105.198V32.2586Z"
          fill="#F5F5F5"/>
    <path d="M122.518 23.1545V18.0047H142.98V23.1545H135.899V41.5467H129.599V23.1545H122.518Z" fill="#F5F5F5"/>
    <path d="M145.431 41.5467V36.9486L154.213 29.6837C154.796 29.2009 155.294 28.7488 155.708 28.3273C156.129 27.8982 156.451 27.4575 156.673 27.0054C156.903 26.5532 157.018 26.0513 157.018 25.4995C157.018 24.8941 156.888 24.3768 156.627 23.9477C156.374 23.5185 156.022 23.189 155.57 22.9591C155.117 22.7215 154.596 22.6028 154.006 22.6028C153.416 22.6028 152.895 22.7215 152.443 22.9591C151.998 23.1967 151.654 23.5454 151.408 24.0052C151.163 24.465 151.041 25.0244 151.041 25.6834H144.971C144.971 24.0281 145.343 22.6028 146.086 21.4073C146.829 20.2118 147.879 19.2922 149.236 18.6484C150.592 18.0047 152.182 17.6829 154.006 17.6829C155.891 17.6829 157.524 17.9856 158.903 18.591C160.29 19.1887 161.359 20.0317 162.11 21.1199C162.869 22.2081 163.248 23.484 163.248 24.9478C163.248 25.852 163.061 26.7525 162.685 27.6491C162.31 28.5381 161.635 29.5228 160.662 30.6033C159.689 31.6839 158.305 32.9713 156.512 34.4657L154.305 36.3049V36.4428H163.501V41.5467H145.431Z"
          fill="#F5F5F5"/>
    <path d="M176.611 42.1904C174.473 42.1827 172.626 41.6884 171.071 40.7075C169.515 39.7266 168.316 38.3127 167.473 36.4658C166.63 34.619 166.212 32.4042 166.22 29.8217C166.227 27.2314 166.649 25.0321 167.484 23.2235C168.327 21.4149 169.523 20.0394 171.071 19.0968C172.626 18.1542 174.473 17.6829 176.611 17.6829C178.749 17.6829 180.596 18.158 182.152 19.1083C183.708 20.0508 184.907 21.4264 185.75 23.235C186.593 25.0435 187.011 27.2391 187.003 29.8217C187.003 32.4196 186.581 34.6419 185.738 36.4888C184.895 38.3357 183.696 39.7496 182.14 40.7305C180.592 41.7038 178.749 42.1904 176.611 42.1904ZM176.611 36.9946C177.715 36.9946 178.619 36.4198 179.324 35.2703C180.037 34.1132 180.389 32.2969 180.382 29.8217C180.382 28.2047 180.221 26.8828 179.899 25.8559C179.577 24.829 179.133 24.0703 178.565 23.5798C177.998 23.0817 177.347 22.8327 176.611 22.8327C175.508 22.8327 174.607 23.3921 173.91 24.5109C173.213 25.6298 172.856 27.4 172.841 29.8217C172.833 31.4693 172.99 32.8257 173.312 33.8909C173.634 34.9485 174.079 35.7301 174.646 36.2359C175.22 36.7417 175.876 36.9946 176.611 36.9946Z"
          fill="#F5F5F5"/>
    <path d="M190.003 41.5467V36.9486L198.785 29.6837C199.368 29.2009 199.866 28.7488 200.28 28.3273C200.701 27.8982 201.023 27.4575 201.245 27.0054C201.475 26.5532 201.59 26.0513 201.59 25.4995C201.59 24.8941 201.46 24.3768 201.199 23.9477C200.946 23.5185 200.594 23.189 200.142 22.9591C199.69 22.7215 199.168 22.6028 198.578 22.6028C197.988 22.6028 197.467 22.7215 197.015 22.9591C196.571 23.1967 196.226 23.5454 195.981 24.0052C195.735 24.465 195.613 25.0244 195.613 25.6834H189.543C189.543 24.0281 189.915 22.6028 190.658 21.4073C191.402 20.2118 192.452 19.2922 193.808 18.6484C195.164 18.0047 196.755 17.6829 198.578 17.6829C200.464 17.6829 202.096 17.9856 203.475 18.591C204.862 19.1887 205.931 20.0317 206.682 21.1199C207.441 22.2081 207.82 23.484 207.82 24.9478C207.82 25.852 207.633 26.7525 207.257 27.6491C206.882 28.5381 206.207 29.5228 205.234 30.6033C204.261 31.6839 202.878 32.9713 201.084 34.4657L198.877 36.3049V36.4428H208.073V41.5467H190.003Z"
          fill="#F5F5F5"/>
    <path d="M210.93 41.5467V36.9486L219.712 29.6837C220.295 29.2009 220.793 28.7488 221.206 28.3273C221.628 27.8982 221.95 27.4575 222.172 27.0054C222.402 26.5532 222.517 26.0513 222.517 25.4995C222.517 24.8941 222.387 24.3768 222.126 23.9477C221.873 23.5185 221.521 23.189 221.069 22.9591C220.616 22.7215 220.095 22.6028 219.505 22.6028C218.915 22.6028 218.394 22.7215 217.942 22.9591C217.497 23.1967 217.153 23.5454 216.907 24.0052C216.662 24.465 216.539 25.0244 216.539 25.6834H210.47C210.47 24.0281 210.842 22.6028 211.585 21.4073C212.328 20.2118 213.378 19.2922 214.735 18.6484C216.091 18.0047 217.681 17.6829 219.505 17.6829C221.39 17.6829 223.023 17.9856 224.402 18.591C225.789 19.1887 226.858 20.0317 227.609 21.1199C228.368 22.2081 228.747 23.484 228.747 24.9478C228.747 25.852 228.56 26.7525 228.184 27.6491C227.809 28.5381 227.134 29.5228 226.161 30.6033C225.188 31.6839 223.804 32.9713 222.011 34.4657L219.804 36.3049V36.4428H229V41.5467H210.93Z"
          fill="#F5F5F5"/>
</svg>
