<svg width="25" height="24" viewBox="0 0 25 24" fill="none" xmlns="http://www.w3.org/2000/svg">
    <g clip-path="url(#clip0_1773_29371)">
        <path d="M19.5 4H5.5C4.39543 4 3.5 4.89543 3.5 6V20C3.5 21.1046 4.39543 22 5.5 22H19.5C20.6046 22 21.5 21.1046 21.5 20V6C21.5 4.89543 20.6046 4 19.5 4Z"
              stroke="#5F5F5F" stroke-width="2" stroke-linecap="round" stroke-linejoin="round"/>
        <path d="M16.5 2V6" stroke="#5F5F5F" stroke-width="2" stroke-linecap="round" stroke-linejoin="round"/>
        <path d="M8.5 2V6" stroke="#5F5F5F" stroke-width="2" stroke-linecap="round" stroke-linejoin="round"/>
        <path d="M3.5 10H21.5" stroke="#5F5F5F" stroke-width="2" stroke-linecap="round" stroke-linejoin="round"/>
        <g clip-path="url(#clip1_1773_29371)">
            <g clip-path="url(#clip2_1773_29371)">
                <path d="M13.4219 12.7031H10.6094C10.4229 12.7031 10.2441 12.7772 10.1122 12.9091C9.98033 13.0409 9.90625 13.2198 9.90625 13.4062V19.0312C9.90625 19.2177 9.98033 19.3966 10.1122 19.5284C10.2441 19.6603 10.4229 19.7344 10.6094 19.7344H14.8281C15.0146 19.7344 15.1934 19.6603 15.3253 19.5284C15.4572 19.3966 15.5312 19.2177 15.5312 19.0312V14.8125L13.4219 12.7031Z"
                      stroke="#0E1C2C" stroke-linecap="round" stroke-linejoin="round"/>
                <path d="M13 13.125V15.375H15.25" stroke="#0E1C2C" stroke-linecap="round" stroke-linejoin="round"/>
            </g>
        </g>
    </g>
    <defs>
        <clipPath id="clip0_1773_29371">
            <rect width="24" height="24" fill="white" transform="translate(0.5)"/>
        </clipPath>
        <clipPath id="clip1_1773_29371">
            <rect width="9" height="9" fill="white" transform="translate(8.5 12)"/>
        </clipPath>
        <clipPath id="clip2_1773_29371">
            <rect width="8.4375" height="8.4375" fill="white" transform="translate(8.5 12)"/>
        </clipPath>
    </defs>
</svg>
