<svg width="24" height="24" viewBox="0 0 24 24" fill="none" xmlns="http://www.w3.org/2000/svg">
<g clip-path="url(#clip0_4139_583)">
<path d="M12 24C18.6274 24 24 18.6274 24 12C24 5.37258 18.6274 0 12 0C5.37258 0 0 5.37258 0 12C0 18.6274 5.37258 24 12 24Z" fill="#0871C4"/>
<path d="M10.9318 15.2626C10.9318 14.473 11.0227 13.825 11.2045 13.3184C11.4015 12.797 11.6439 12.3575 11.9318 12C12.2197 11.6425 12.5227 11.3371 12.8409 11.0838C13.1742 10.8305 13.4848 10.5773 13.7727 10.324C14.0606 10.0559 14.2955 9.76536 14.4773 9.45251C14.6742 9.12477 14.7727 8.70763 14.7727 8.20112C14.7727 7.56052 14.5455 7.03911 14.0909 6.63687C13.6364 6.21974 12.9773 6.01117 12.1136 6.01117C11.1742 6.01117 10.4697 6.22719 10 6.65922C9.54545 7.09125 9.28788 7.71695 9.22727 8.53631H7C7.0303 7.86592 7.16667 7.25512 7.40909 6.70391C7.65152 6.1378 7.98485 5.65363 8.40909 5.2514C8.83333 4.84916 9.34848 4.54376 9.95454 4.33519C10.5606 4.11173 11.2424 4 12 4C12.803 4 13.5152 4.10428 14.1364 4.31285C14.7576 4.52142 15.2803 4.81192 15.7045 5.18436C16.1288 5.5419 16.447 5.97393 16.6591 6.48045C16.8864 6.97207 17 7.50838 17 8.08939C17 8.77467 16.9015 9.34078 16.7045 9.78771C16.5076 10.2346 16.2652 10.622 15.9773 10.9497C15.6894 11.2775 15.3712 11.5754 15.0227 11.8436C14.6894 12.0968 14.3788 12.3799 14.0909 12.6927C13.803 12.9907 13.5606 13.3408 13.3636 13.743C13.1667 14.1453 13.0682 14.6518 13.0682 15.2626H10.9318ZM12 20C11.5303 20 11.1439 19.851 10.8409 19.5531C10.553 19.2402 10.4091 18.8678 10.4091 18.4358C10.4091 18.0037 10.553 17.6387 10.8409 17.3408C11.1439 17.0279 11.5303 16.8715 12 16.8715C12.4697 16.8715 12.8485 17.0279 13.1364 17.3408C13.4394 17.6387 13.5909 18.0037 13.5909 18.4358C13.5909 18.8678 13.4394 19.2402 13.1364 19.5531C12.8485 19.851 12.4697 20 12 20Z" fill="white"/>
</g>
<defs>
<clipPath id="clip0_4139_583">
<rect width="24" height="24" fill="white"/>
</clipPath>
</defs>
</svg>
