<svg width="10" height="16" viewBox="0 0 10 16" fill="none" xmlns="http://www.w3.org/2000/svg">
<path d="M3.93182 11.2626C3.93182 10.473 4.02273 9.82495 4.20455 9.31844C4.40151 8.79702 4.64394 8.35754 4.93182 8C5.2197 7.64246 5.52273 7.33706 5.84091 7.0838C6.17424 6.83054 6.48485 6.57728 6.77273 6.32402C7.06061 6.05587 7.29545 5.76536 7.47727 5.45251C7.67424 5.12477 7.77273 4.70763 7.77273 4.20112C7.77273 3.56052 7.54545 3.03911 7.09091 2.63687C6.63636 2.21974 5.97727 2.01117 5.11364 2.01117C4.17424 2.01117 3.4697 2.22719 3 2.65922C2.54545 3.09125 2.28788 3.71695 2.22727 4.53631H0C0.030303 3.86592 0.166667 3.25512 0.409091 2.70391C0.651515 2.1378 0.984848 1.65363 1.40909 1.2514C1.83333 0.849162 2.34848 0.543761 2.95454 0.335195C3.56061 0.111731 4.24242 0 5 0C5.80303 0 6.51515 0.104283 7.13636 0.312849C7.75758 0.521415 8.2803 0.811918 8.70455 1.18436C9.12879 1.5419 9.44697 1.97393 9.65909 2.48045C9.88636 2.97207 10 3.50838 10 4.08939C10 4.77467 9.90152 5.34078 9.70455 5.78771C9.50758 6.23464 9.26515 6.62197 8.97727 6.94972C8.68939 7.27747 8.37121 7.57542 8.02273 7.84358C7.68939 8.09683 7.37879 8.37989 7.09091 8.69274C6.80303 8.99069 6.56061 9.34078 6.36364 9.74302C6.16667 10.1453 6.06818 10.6518 6.06818 11.2626H3.93182ZM5 16C4.5303 16 4.14394 15.851 3.84091 15.5531C3.55303 15.2402 3.40909 14.8678 3.40909 14.4358C3.40909 14.0037 3.55303 13.6387 3.84091 13.3408C4.14394 13.0279 4.5303 12.8715 5 12.8715C5.4697 12.8715 5.84848 13.0279 6.13636 13.3408C6.43939 13.6387 6.59091 14.0037 6.59091 14.4358C6.59091 14.8678 6.43939 15.2402 6.13636 15.5531C5.84848 15.851 5.4697 16 5 16Z" fill="white"/>
</svg>
