<svg width="32" height="32" viewBox="0 0 32 32" fill="none" xmlns="http://www.w3.org/2000/svg">
    <path d="M16 29.3332C23.3638 29.3332 29.3333 23.3636 29.3333 15.9998C29.3333 8.63604 23.3638 2.6665 16 2.6665C8.63619 2.6665 2.66666 8.63604 2.66666 15.9998C2.66666 23.3636 8.63619 29.3332 16 29.3332Z"
          fill="#03487E"/>
    <g clip-path="url(#clip0_1355_26353)">
        <path d="M16 18.4001C17.3255 18.4001 18.4 17.3256 18.4 16.0001C18.4 14.6746 17.3255 13.6001 16 13.6001C14.6745 13.6001 13.6 14.6746 13.6 16.0001C13.6 17.3256 14.6745 18.4001 16 18.4001Z"
              stroke="white" stroke-width="2" stroke-linecap="round" stroke-linejoin="round"/>
        <path d="M21.92 18.3997C21.8135 18.641 21.7817 18.9087 21.8288 19.1682C21.8758 19.4277 21.9996 19.6672 22.184 19.8557L22.232 19.9037C22.3807 20.0523 22.4988 20.2288 22.5793 20.423C22.6598 20.6172 22.7012 20.8254 22.7012 21.0357C22.7012 21.246 22.6598 21.4542 22.5793 21.6484C22.4988 21.8427 22.3807 22.0191 22.232 22.1677C22.0834 22.3165 21.9069 22.4345 21.7127 22.515C21.5185 22.5955 21.3102 22.637 21.1 22.637C20.8897 22.637 20.6815 22.5955 20.4873 22.515C20.293 22.4345 20.1166 22.3165 19.968 22.1677L19.92 22.1197C19.7314 21.9353 19.492 21.8116 19.2325 21.7645C18.9729 21.7175 18.7053 21.7492 18.464 21.8557C18.2274 21.9571 18.0256 22.1255 17.8834 22.3401C17.7413 22.5548 17.665 22.8063 17.664 23.0637V23.1997C17.664 23.6241 17.4954 24.031 17.1954 24.3311C16.8953 24.6311 16.4883 24.7997 16.064 24.7997C15.6396 24.7997 15.2327 24.6311 14.9326 24.3311C14.6326 24.031 14.464 23.6241 14.464 23.1997V23.1277C14.4578 22.8629 14.3721 22.6061 14.218 22.3907C14.0639 22.1752 13.8486 22.0111 13.6 21.9197C13.3587 21.8132 13.091 21.7815 12.8315 21.8285C12.572 21.8756 12.3325 21.9993 12.144 22.1837L12.096 22.2317C11.9474 22.3805 11.7709 22.4985 11.5767 22.579C11.3824 22.6595 11.1742 22.701 10.964 22.701C10.7537 22.701 10.5455 22.6595 10.3513 22.579C10.157 22.4985 9.98058 22.3805 9.83198 22.2317C9.68322 22.0831 9.56521 21.9067 9.48469 21.7124C9.40417 21.5182 9.36272 21.31 9.36272 21.0997C9.36272 20.8894 9.40417 20.6812 9.48469 20.487C9.56521 20.2928 9.68322 20.1163 9.83198 19.9677L9.87998 19.9197C10.0644 19.7312 10.1881 19.4917 10.2352 19.2322C10.2822 18.9727 10.2505 18.705 10.144 18.4637C10.0426 18.2271 9.87419 18.0253 9.65955 17.8832C9.44492 17.741 9.19341 17.6647 8.93598 17.6637H8.79998C8.37564 17.6637 7.96867 17.4951 7.66861 17.1951C7.36855 16.895 7.19998 16.4881 7.19998 16.0637C7.19998 15.6394 7.36855 15.2324 7.66861 14.9323C7.96867 14.6323 8.37564 14.4637 8.79998 14.4637H8.87198C9.13678 14.4575 9.39359 14.3718 9.60902 14.2177C9.82446 14.0636 9.98855 13.8483 10.08 13.5997C10.1865 13.3584 10.2182 13.0908 10.1712 12.8312C10.1241 12.5717 10.0004 12.3323 9.81598 12.1437L9.76798 12.0957C9.61922 11.9471 9.50121 11.7706 9.42069 11.5764C9.34017 11.3822 9.29872 11.174 9.29872 10.9637C9.29872 10.7534 9.34017 10.5452 9.42069 10.351C9.50121 10.1568 9.61922 9.9803 9.76798 9.83171C9.91658 9.68295 10.093 9.56493 10.2873 9.48441C10.4815 9.40389 10.6897 9.36245 10.9 9.36245C11.1102 9.36245 11.3184 9.40389 11.5127 9.48441C11.7069 9.56493 11.8834 9.68295 12.032 9.83171L12.08 9.87971C12.2685 10.0641 12.508 10.1879 12.7675 10.2349C13.027 10.282 13.2947 10.2502 13.536 10.1437H13.6C13.8366 10.0423 14.0384 9.87391 14.1805 9.65928C14.3227 9.44465 14.399 9.19314 14.4 8.93571V8.79971C14.4 8.37536 14.5686 7.96839 14.8686 7.66834C15.1687 7.36828 15.5756 7.19971 16 7.19971C16.4243 7.19971 16.8313 7.36828 17.1314 7.66834C17.4314 7.96839 17.6 8.37536 17.6 8.79971V8.87171C17.601 9.12914 17.6773 9.38065 17.8194 9.59528C17.9616 9.80991 18.1634 9.9783 18.4 10.0797C18.6413 10.1862 18.9089 10.218 19.1685 10.1709C19.428 10.1239 19.6674 10.0001 19.856 9.81571L19.904 9.76771C20.0526 9.61895 20.229 9.50093 20.4233 9.42041C20.6175 9.33989 20.8257 9.29845 21.036 9.29845C21.2462 9.29845 21.4545 9.33989 21.6487 9.42041C21.8429 9.50093 22.0194 9.61895 22.168 9.76771C22.3167 9.9163 22.4348 10.0928 22.5153 10.287C22.5958 10.4812 22.6372 10.6894 22.6372 10.8997C22.6372 11.11 22.5958 11.3182 22.5153 11.5124C22.4348 11.7066 22.3167 11.8831 22.168 12.0317L22.12 12.0797C21.9356 12.2683 21.8118 12.5077 21.7648 12.7672C21.7177 13.0268 21.7495 13.2944 21.856 13.5357V13.5997C21.9574 13.8363 22.1258 14.0381 22.3404 14.1803C22.555 14.3224 22.8066 14.3987 23.064 14.3997H23.2C23.6243 14.3997 24.0313 14.5683 24.3314 14.8683C24.6314 15.1684 24.8 15.5754 24.8 15.9997C24.8 16.4241 24.6314 16.831 24.3314 17.1311C24.0313 17.4311 23.6243 17.5997 23.2 17.5997H23.128C22.8706 17.6007 22.619 17.677 22.4044 17.8192C22.1898 17.9613 22.0214 18.1631 21.92 18.3997Z"
              stroke="white" stroke-width="2" stroke-linecap="round" stroke-linejoin="round"/>
    </g>
    <defs>
        <clipPath id="clip0_1355_26353">
            <rect width="19.2" height="19.2" fill="white" transform="translate(6.39999 6.3999)"/>
        </clipPath>
    </defs>
</svg>
