<svg width="17" height="16" viewBox="0 0 17 16" fill="none" xmlns="http://www.w3.org/2000/svg">
    <g clip-path="url(#clip0_3597_15840)">
        <path d="M8.75 10C9.85457 10 10.75 9.10457 10.75 8C10.75 6.89543 9.85457 6 8.75 6C7.64543 6 6.75 6.89543 6.75 8C6.75 9.10457 7.64543 10 8.75 10Z"
              stroke="#A5A5A5" stroke-linecap="round" stroke-linejoin="round"/>
        <path d="M13.6834 9.99999C13.5946 10.2011 13.5681 10.4241 13.6074 10.6404C13.6466 10.8566 13.7497 11.0562 13.9034 11.2133L13.9434 11.2533C14.0673 11.3772 14.1657 11.5242 14.2328 11.6861C14.2999 11.8479 14.3344 12.0214 14.3344 12.1967C14.3344 12.3719 14.2999 12.5454 14.2328 12.7072C14.1657 12.8691 14.0673 13.0162 13.9434 13.14C13.8195 13.264 13.6725 13.3623 13.5106 13.4294C13.3487 13.4965 13.1752 13.531 13 13.531C12.8248 13.531 12.6513 13.4965 12.4894 13.4294C12.3276 13.3623 12.1805 13.264 12.0567 13.14L12.0167 13.1C11.8596 12.9463 11.66 12.8432 11.4437 12.804C11.2275 12.7648 11.0044 12.7912 10.8034 12.88C10.6062 12.9645 10.438 13.1048 10.3196 13.2837C10.2011 13.4625 10.1375 13.6721 10.1367 13.8867V14C10.1367 14.3536 9.99621 14.6928 9.74616 14.9428C9.49611 15.1928 9.15698 15.3333 8.80335 15.3333C8.44973 15.3333 8.11059 15.1928 7.86055 14.9428C7.6105 14.6928 7.47002 14.3536 7.47002 14V13.94C7.46486 13.7193 7.39343 13.5053 7.26503 13.3258C7.13662 13.1463 6.95718 13.0095 6.75002 12.9333C6.54894 12.8446 6.32589 12.8181 6.10963 12.8573C5.89336 12.8965 5.69381 12.9996 5.53669 13.1533L5.49669 13.1933C5.37286 13.3173 5.2258 13.4156 5.06394 13.4827C4.90208 13.5498 4.72857 13.5844 4.55335 13.5844C4.37813 13.5844 4.20463 13.5498 4.04277 13.4827C3.8809 13.4156 3.73385 13.3173 3.61002 13.1933C3.48605 13.0695 3.38771 12.9224 3.32061 12.7606C3.25351 12.5987 3.21897 12.4252 3.21897 12.25C3.21897 12.0748 3.25351 11.9013 3.32061 11.7394C3.38771 11.5775 3.48605 11.4305 3.61002 11.3067L3.65002 11.2667C3.80371 11.1095 3.90681 10.91 3.94602 10.6937C3.98524 10.4775 3.95876 10.2544 3.87002 10.0533C3.78551 9.85614 3.64519 9.68798 3.46633 9.56953C3.28747 9.45108 3.07788 9.38751 2.86335 9.38666H2.75002C2.3964 9.38666 2.05726 9.24618 1.80721 8.99613C1.55716 8.74608 1.41669 8.40695 1.41669 8.05332C1.41669 7.6997 1.55716 7.36056 1.80721 7.11051C2.05726 6.86047 2.3964 6.71999 2.75002 6.71999H2.81002C3.03068 6.71483 3.24469 6.6434 3.42422 6.515C3.60375 6.38659 3.7405 6.20715 3.81669 5.99999C3.90543 5.79891 3.9319 5.57586 3.89269 5.3596C3.85348 5.14333 3.75038 4.94378 3.59669 4.78666L3.55669 4.74666C3.43272 4.62283 3.33437 4.47577 3.26727 4.31391C3.20018 4.15205 3.16564 3.97854 3.16564 3.80332C3.16564 3.6281 3.20018 3.4546 3.26727 3.29274C3.33437 3.13087 3.43272 2.98382 3.55669 2.85999C3.68052 2.73602 3.82757 2.63768 3.98943 2.57058C4.1513 2.50348 4.3248 2.46894 4.50002 2.46894C4.67524 2.46894 4.84874 2.50348 5.01061 2.57058C5.17247 2.63768 5.31952 2.73602 5.44335 2.85999L5.48335 2.89999C5.64047 3.05368 5.84003 3.15678 6.05629 3.19599C6.27256 3.23521 6.49561 3.20873 6.69669 3.11999H6.75002C6.9472 3.03548 7.11537 2.89516 7.23382 2.7163C7.35227 2.53744 7.41583 2.32785 7.41669 2.11332V1.99999C7.41669 1.64637 7.55716 1.30723 7.80721 1.05718C8.05726 0.807132 8.3964 0.666656 8.75002 0.666656C9.10364 0.666656 9.44278 0.807132 9.69283 1.05718C9.94288 1.30723 10.0834 1.64637 10.0834 1.99999V2.05999C10.0842 2.27451 10.1478 2.48411 10.2662 2.66297C10.3847 2.84183 10.5528 2.98215 10.75 3.06666C10.9511 3.1554 11.1741 3.18187 11.3904 3.14266C11.6067 3.10345 11.8062 3.00035 11.9634 2.84666L12.0034 2.80666C12.1272 2.68269 12.2742 2.58434 12.4361 2.51724C12.598 2.45014 12.7715 2.41561 12.9467 2.41561C13.1219 2.41561 13.2954 2.45014 13.4573 2.51724C13.6191 2.58434 13.7662 2.68269 13.89 2.80666C14.014 2.93049 14.1123 3.07754 14.1794 3.2394C14.2465 3.40127 14.2811 3.57477 14.2811 3.74999C14.2811 3.92521 14.2465 4.09871 14.1794 4.26058C14.1123 4.42244 14.014 4.56949 13.89 4.69332L13.85 4.73332C13.6963 4.89044 13.5932 5.09 13.554 5.30626C13.5148 5.52253 13.5413 5.74558 13.63 5.94666V5.99999C13.7145 6.19717 13.8549 6.36533 14.0337 6.48379C14.2126 6.60224 14.4222 6.6658 14.6367 6.66666H14.75C15.1036 6.66666 15.4428 6.80713 15.6928 7.05718C15.9429 7.30723 16.0834 7.64637 16.0834 7.99999C16.0834 8.35361 15.9429 8.69275 15.6928 8.9428C15.4428 9.19285 15.1036 9.33332 14.75 9.33332H14.69C14.4755 9.33418 14.2659 9.39774 14.087 9.51619C13.9082 9.63465 13.7679 9.80281 13.6834 9.99999Z"
              stroke="#A5A5A5" stroke-linecap="round" stroke-linejoin="round"/>
    </g>
    <defs>
        <clipPath id="clip0_3597_15840">
            <rect width="16" height="16" fill="white" transform="translate(0.75)"/>
        </clipPath>
    </defs>
</svg>
