<svg width="25" height="25" viewBox="0 0 25 25" fill="none" xmlns="http://www.w3.org/2000/svg">
    <g clip-path="url(#clip0_2586_38140)">
        <path d="M12.5 13.5C13.0523 13.5 13.5 13.0523 13.5 12.5C13.5 11.9477 13.0523 11.5 12.5 11.5C11.9477 11.5 11.5 11.9477 11.5 12.5C11.5 13.0523 11.9477 13.5 12.5 13.5Z"
              fill="black" stroke="#5F5F5F" stroke-width="2" stroke-linecap="round" stroke-linejoin="round"/>
        <path d="M12.5 6.5C13.0523 6.5 13.5 6.05228 13.5 5.5C13.5 4.94772 13.0523 4.5 12.5 4.5C11.9477 4.5 11.5 4.94772 11.5 5.5C11.5 6.05228 11.9477 6.5 12.5 6.5Z"
              fill="black" stroke="#5F5F5F" stroke-width="2" stroke-linecap="round" stroke-linejoin="round"/>
        <path d="M12.5 20.5C13.0523 20.5 13.5 20.0523 13.5 19.5C13.5 18.9477 13.0523 18.5 12.5 18.5C11.9477 18.5 11.5 18.9477 11.5 19.5C11.5 20.0523 11.9477 20.5 12.5 20.5Z"
              fill="black" stroke="#5F5F5F" stroke-width="2" stroke-linecap="round" stroke-linejoin="round"/>
    </g>
    <defs>
        <clipPath id="clip0_2586_38140">
            <rect width="24" height="24" fill="white" transform="translate(0.5 0.5)"/>
        </clipPath>
    </defs>
</svg>
