<svg width="17" height="16" viewBox="0 0 17 16" fill="none" xmlns="http://www.w3.org/2000/svg">
    <g clip-path="url(#clip0_1773_28711)">
        <path d="M13.1667 2H3.83333C3.09695 2 2.5 2.59695 2.5 3.33333V12.6667C2.5 13.403 3.09695 14 3.83333 14H13.1667C13.903 14 14.5 13.403 14.5 12.6667V3.33333C14.5 2.59695 13.903 2 13.1667 2Z"
              fill="#A5A5A5" stroke="#5F5F5F" stroke-linecap="round" stroke-linejoin="round"/>
        <path d="M8.95813 10.164H7.58374C7.58867 9.73387 7.63054 9.38217 7.70936 9.10887C7.7931 8.83109 7.92857 8.57796 8.11576 8.34946C8.30296 8.12097 8.55172 7.86111 8.86207 7.56989C9.08867 7.35932 9.29557 7.16219 9.48276 6.97849C9.67488 6.79032 9.83005 6.58871 9.94828 6.37366C10.0665 6.15412 10.1256 5.89202 10.1256 5.58737C10.1256 5.27823 10.064 5.01165 9.94089 4.78763C9.82266 4.56362 9.64532 4.39113 9.40887 4.27016C9.17734 4.14919 8.88916 4.08871 8.54434 4.08871C8.25862 4.08871 7.98768 4.13575 7.73153 4.22984C7.47537 4.32392 7.26847 4.46953 7.11084 4.66667C6.9532 4.85932 6.87192 5.11246 6.867 5.42608H5.5C5.50985 4.9198 5.64778 4.48522 5.91379 4.12231C6.18473 3.75941 6.54926 3.48163 7.00739 3.28898C7.46552 3.09633 7.97783 3 8.54434 3C9.16995 3 9.70197 3.10305 10.1404 3.30914C10.5837 3.51523 10.9212 3.81093 11.1527 4.19624C11.3842 4.57706 11.5 5.02957 11.5 5.55376C11.5 5.95699 11.4089 6.32885 11.2266 6.66935C11.0493 7.00538 10.8202 7.32124 10.5394 7.61694C10.2586 7.91263 9.96059 8.19489 9.64532 8.46371C9.37438 8.6922 9.19212 8.94982 9.09852 9.23656C9.00493 9.5233 8.95813 9.83244 8.95813 10.164ZM7.52463 12.2944C7.52463 12.0927 7.5936 11.9225 7.73153 11.7836C7.86946 11.6447 8.06897 11.5753 8.33005 11.5753C8.59606 11.5753 8.79803 11.6447 8.93596 11.7836C9.07389 11.9225 9.14286 12.0927 9.14286 12.2944C9.14286 12.487 9.07389 12.6528 8.93596 12.7917C8.79803 12.9306 8.59606 13 8.33005 13C8.06897 13 7.86946 12.9306 7.73153 12.7917C7.5936 12.6528 7.52463 12.487 7.52463 12.2944Z"
              fill="white"/>
    </g>
    <defs>
        <clipPath id="clip0_1773_28711">
            <rect width="16" height="16" fill="white" transform="translate(0.5)"/>
        </clipPath>
    </defs>
</svg>
