<svg width="17" height="16" viewBox="0 0 17 16" fill="none" xmlns="http://www.w3.org/2000/svg">
<path d="M12.625 8H8.625" stroke="#5F5F5F" stroke-linecap="round" stroke-linejoin="round"/>
<path d="M12.625 10H8.625" stroke="#5F5F5F" stroke-linecap="round" stroke-linejoin="round"/>
<path d="M12.625 12H8.625" stroke="#5F5F5F" stroke-linecap="round" stroke-linejoin="round"/>
<path d="M13.8558 5.33331H7.39423C6.6012 5.33331 5.95833 5.97619 5.95833 6.76921V13.2307C5.95833 14.0238 6.6012 14.6666 7.39423 14.6666H13.8558C14.6488 14.6666 15.2917 14.0238 15.2917 13.2307V6.76921C15.2917 5.97619 14.6488 5.33331 13.8558 5.33331Z" stroke="#5F5F5F" stroke-linecap="round" stroke-linejoin="round"/>
<path d="M3.95834 9.99998H3.29167C2.93805 9.99998 2.59891 9.8595 2.34886 9.60946C2.09881 9.35941 1.95834 9.02027 1.95834 8.66665V2.66665C1.95834 2.31302 2.09881 1.97389 2.34886 1.72384C2.59891 1.47379 2.93805 1.33331 3.29167 1.33331H9.29167C9.64529 1.33331 9.98443 1.47379 10.2345 1.72384C10.4845 1.97389 10.625 2.31302 10.625 2.66665V3.33331" stroke="#5F5F5F" stroke-linecap="round" stroke-linejoin="round"/>
</svg>
