<svg width="17" height="17" viewBox="0 0 17 17" fill="none" xmlns="http://www.w3.org/2000/svg">
<path d="M10.5 1.5H5C4.63533 1.5 4.28559 1.63696 4.02773 1.88076C3.76987 2.12456 3.625 2.45522 3.625 2.8V13.2C3.625 13.5448 3.76987 13.8754 4.02773 14.1192C4.28559 14.363 4.63533 14.5 5 14.5H13.25C13.6147 14.5 13.9644 14.363 14.2223 14.1192C14.4801 13.8754 14.625 13.5448 14.625 13.2V5.4L10.5 1.5Z" stroke="#5F5F5F" stroke-linecap="round" stroke-linejoin="round"/>
<path d="M10.625 1.5V5.5H14.625" stroke="#5F5F5F" stroke-linecap="round" stroke-linejoin="round"/>
<path d="M7.98104 10.4685V10.405C7.98537 9.99069 8.02538 9.66102 8.10107 9.41599C8.17893 9.17096 8.28923 8.97271 8.43197 8.82124C8.57472 8.66977 8.74665 8.53166 8.94779 8.40692C9.07755 8.32228 9.19434 8.22761 9.29816 8.12291C9.40197 8.01822 9.48415 7.89793 9.54471 7.76205C9.60526 7.62617 9.63554 7.47582 9.63554 7.31098C9.63554 7.11273 9.59013 6.94121 9.49929 6.79642C9.40845 6.65163 9.28734 6.54025 9.13595 6.46229C8.98672 6.3821 8.82019 6.342 8.63635 6.342C8.46982 6.342 8.31086 6.37765 8.15947 6.44893C8.00808 6.52021 7.88264 6.63158 7.78315 6.78305C7.68366 6.9323 7.62635 7.12498 7.61121 7.3611H6.625C6.64014 6.96014 6.73854 6.62156 6.92021 6.34535C7.10189 6.06691 7.34195 5.8564 7.64041 5.71384C7.94103 5.57128 8.27301 5.5 8.63635 5.5C9.0343 5.5 9.3825 5.57685 9.68096 5.73055C9.97942 5.88202 10.2108 6.09475 10.3752 6.36874C10.5417 6.64049 10.625 6.95792 10.625 7.321C10.625 7.57049 10.5872 7.79547 10.5115 7.99594C10.4358 8.19419 10.3276 8.37128 10.187 8.52721C10.0486 8.68313 9.8821 8.82124 9.68745 8.94153C9.50362 9.05959 9.35439 9.1821 9.23976 9.30907C9.1273 9.43604 9.04511 9.5864 8.99321 9.76014C8.9413 9.93389 8.91319 10.1488 8.90886 10.405V10.4685H7.98104ZM8.4709 12.5C8.29356 12.5 8.14109 12.4354 8.01348 12.3062C7.88588 12.1748 7.82208 12.0166 7.82208 11.8317C7.82208 11.6491 7.88588 11.4932 8.01348 11.364C8.14109 11.2325 8.29356 11.1668 8.4709 11.1668C8.64609 11.1668 8.79748 11.2325 8.92508 11.364C9.05485 11.4932 9.11973 11.6491 9.11973 11.8317C9.11973 11.9543 9.08945 12.0667 9.02889 12.1692C8.9705 12.2695 8.89264 12.3496 8.79532 12.4098C8.69799 12.4699 8.58986 12.5 8.4709 12.5Z" fill="#E06017"/>
</svg>
