<svg width="25" height="25" viewBox="0 0 25 25" fill="none" xmlns="http://www.w3.org/2000/svg">
<g clip-path="url(#clip0_8636_6818)">
<path d="M12.625 24.5C19.2524 24.5 24.625 19.1274 24.625 12.5C24.625 5.87258 19.2524 0.5 12.625 0.5C5.99758 0.5 0.625 5.87258 0.625 12.5C0.625 19.1274 5.99758 24.5 12.625 24.5Z" fill="#E0DFDF"/>
<path d="M11.5568 15.7626C11.5568 14.973 11.6477 14.325 11.8295 13.8184C12.0265 13.297 12.2689 12.8575 12.5568 12.5C12.8447 12.1425 13.1477 11.8371 13.4659 11.5838C13.7992 11.3305 14.1098 11.0773 14.3977 10.824C14.6856 10.5559 14.9205 10.2654 15.1023 9.95251C15.2992 9.62477 15.3977 9.20763 15.3977 8.70112C15.3977 8.06052 15.1705 7.53911 14.7159 7.13687C14.2614 6.71974 13.6023 6.51117 12.7386 6.51117C11.7992 6.51117 11.0947 6.72719 10.625 7.15922C10.1705 7.59125 9.91288 8.21695 9.85227 9.03631H7.625C7.6553 8.36592 7.79167 7.75512 8.03409 7.20391C8.27652 6.6378 8.60985 6.15363 9.03409 5.7514C9.45833 5.34916 9.97348 5.04376 10.5795 4.83519C11.1856 4.61173 11.8674 4.5 12.625 4.5C13.428 4.5 14.1402 4.60428 14.7614 4.81285C15.3826 5.02142 15.9053 5.31192 16.3295 5.68436C16.7538 6.0419 17.072 6.47393 17.2841 6.98045C17.5114 7.47207 17.625 8.00838 17.625 8.58939C17.625 9.27467 17.5265 9.84078 17.3295 10.2877C17.1326 10.7346 16.8902 11.122 16.6023 11.4497C16.3144 11.7775 15.9962 12.0754 15.6477 12.3436C15.3144 12.5968 15.0038 12.8799 14.7159 13.1927C14.428 13.4907 14.1856 13.8408 13.9886 14.243C13.7917 14.6453 13.6932 15.1518 13.6932 15.7626H11.5568ZM12.625 20.5C12.1553 20.5 11.7689 20.351 11.4659 20.0531C11.178 19.7402 11.0341 19.3678 11.0341 18.9358C11.0341 18.5037 11.178 18.1387 11.4659 17.8408C11.7689 17.5279 12.1553 17.3715 12.625 17.3715C13.0947 17.3715 13.4735 17.5279 13.7614 17.8408C14.0644 18.1387 14.2159 18.5037 14.2159 18.9358C14.2159 19.3678 14.0644 19.7402 13.7614 20.0531C13.4735 20.351 13.0947 20.5 12.625 20.5Z" fill="white"/>
</g>
<defs>
<clipPath id="clip0_8636_6818">
<rect width="24" height="24" fill="white" transform="translate(0.625 0.5)"/>
</clipPath>
</defs>
</svg>
