<svg width="17" height="17" viewBox="0 0 17 17" fill="none" xmlns="http://www.w3.org/2000/svg">
<g clip-path="url(#clip0_8636_6884)">
<g clip-path="url(#clip1_8636_6884)">
<path d="M3.18983 2.03333H6.28613C6.59724 1.144 7.41206 0.5 8.37502 0.5C9.33798 0.5 10.1528 1.144 10.4639 2.03333H13.5602C14.375 2.03333 15.0417 2.72333 15.0417 3.56667V14.3C15.0417 15.1433 14.375 15.8333 13.5602 15.8333H3.18983C2.37502 15.8333 1.70835 15.1433 1.70835 14.3V3.56667C1.70835 2.72333 2.37502 2.03333 3.18983 2.03333ZM8.37502 2.03333C7.96761 2.03333 7.63428 2.37833 7.63428 2.8C7.63428 3.22167 7.96761 3.56667 8.37502 3.56667C8.78243 3.56667 9.11576 3.22167 9.11576 2.8C9.11576 2.37833 8.78243 2.03333 8.37502 2.03333Z" fill="#16B025"/>
<g clip-path="url(#clip2_8636_6884)">
<rect width="9.33333" height="9.33333" transform="translate(3.70834 4.5)" fill="#16B025"/>
<path fill-rule="evenodd" clip-rule="evenodd" d="M12.2639 9.16666C12.2639 11.3144 10.5228 13.0555 8.375 13.0555C6.22723 13.0555 4.48611 11.3144 4.48611 9.16666C4.48611 7.01889 6.22723 5.27777 8.375 5.27777C10.5228 5.27777 12.2639 7.01889 12.2639 9.16666ZM9.37501 7.22222C9.37501 6.66993 8.9273 6.22222 8.37501 6.22222C7.82273 6.22222 7.37501 6.66993 7.37501 7.22222V9.55555C7.37501 9.93432 7.58901 10.2806 7.9278 10.45L9.48335 11.2278C9.97733 11.4747 10.578 11.2745 10.825 10.7805C11.072 10.2866 10.8718 9.68589 10.3778 9.4389L9.37501 8.93752V7.22222Z" fill="#EDF1F5"/>
</g>
</g>
</g>
<defs>
<clipPath id="clip0_8636_6884">
<rect width="16" height="16" fill="white" transform="translate(0.375 0.5)"/>
</clipPath>
<clipPath id="clip1_8636_6884">
<rect width="16" height="16" fill="white" transform="translate(0.375 0.5)"/>
</clipPath>
<clipPath id="clip2_8636_6884">
<rect width="9.33333" height="9.33333" fill="white" transform="translate(3.70834 4.5)"/>
</clipPath>
</defs>
</svg>
