<svg width="24" height="24" viewBox="0 0 24 24" fill="none" xmlns="http://www.w3.org/2000/svg">
<path d="M13.9297 5.52897C13.7272 5.72568 13.6138 5.99016 13.6138 6.26562C13.6138 6.54107 13.7272 6.80555 13.9297 7.00227L15.6976 8.68604C15.9042 8.87886 16.1819 8.98686 16.4711 8.98686C16.7603 8.98686 17.038 8.87886 17.2446 8.68604L21.4103 4.71865C21.966 5.88802 22.1342 7.19089 21.8926 8.45362C21.651 9.71636 21.0111 10.879 20.0582 11.7866C19.1052 12.6942 17.8844 13.3036 16.5586 13.5337C15.2327 13.7637 13.8647 13.6035 12.6368 13.0744L5.00147 20.3462C4.56188 20.7648 3.96567 21 3.344 21C2.72234 21 2.12613 20.7648 1.68654 20.3462C1.24696 19.9275 1 19.3597 1 18.7676C1 18.1756 1.24696 17.6077 1.68654 17.1891L9.32192 9.9173C8.7663 8.74793 8.59807 7.44506 8.83964 6.18233C9.08122 4.91959 9.72113 3.75696 10.6741 2.84937C11.6271 1.94178 12.8478 1.33235 14.1737 1.10227C15.4996 0.872199 16.8676 1.03242 18.0954 1.56158L13.9407 5.51844L13.9297 5.52897Z" fill="#7091B7" stroke="#0E1C2C" stroke-linecap="round" stroke-linejoin="round"/>
<path d="M16.25 22.5C19.7018 22.5 22.5 19.7018 22.5 16.25C22.5 12.7982 19.7018 10 16.25 10C12.7982 10 10 12.7982 10 16.25C10 19.7018 12.7982 22.5 16.25 22.5Z" fill="#16B025" stroke="black" stroke-linecap="round" stroke-linejoin="round"/>
<g clip-path="url(#clip0_7715_4584)">
<path d="M19.2708 14.5312L15.5468 18.2552L13.8541 16.5625" stroke="white" stroke-width="2" stroke-linecap="round" stroke-linejoin="round"/>
</g>
<defs>
<clipPath id="clip0_7715_4584">
<rect width="8.125" height="8.125" fill="white" transform="translate(12.5 12.5)"/>
</clipPath>
</defs>
</svg>
