<svg width="25" height="24" viewBox="0 0 25 24" fill="none" xmlns="http://www.w3.org/2000/svg">
<path d="M14.4297 5.52897C14.2272 5.72568 14.1138 5.99016 14.1138 6.26562C14.1138 6.54107 14.2272 6.80555 14.4297 7.00227L16.1976 8.68604C16.4042 8.87886 16.6819 8.98686 16.9711 8.98686C17.2603 8.98686 17.538 8.87886 17.7446 8.68604L21.9103 4.71865C22.466 5.88802 22.6342 7.19089 22.3926 8.45362C22.151 9.71636 21.5111 10.879 20.5582 11.7866C19.6052 12.6942 18.3844 13.3036 17.0586 13.5337C15.7327 13.7637 14.3647 13.6035 13.1368 13.0744L5.50147 20.3462C5.06188 20.7648 4.46567 21 3.844 21C3.22234 21 2.62613 20.7648 2.18654 20.3462C1.74696 19.9275 1.5 19.3597 1.5 18.7676C1.5 18.1756 1.74696 17.6077 2.18654 17.1891L9.82192 9.9173C9.2663 8.74793 9.09807 7.44506 9.33964 6.18233C9.58122 4.91959 10.2211 3.75696 11.1741 2.84937C12.1271 1.94178 13.3478 1.33235 14.6737 1.10227C15.9996 0.872199 17.3676 1.03242 18.5954 1.56158L14.4407 5.51844L14.4297 5.52897Z" fill="#7091B7" stroke="#0E1C2C" stroke-linecap="round" stroke-linejoin="round"/>
<g clip-path="url(#clip0_7813_5049)">
<path fill-rule="evenodd" clip-rule="evenodd" d="M19.9469 18.6453C19.915 18.4696 19.9366 18.2884 20.0087 18.125C20.0773 17.9648 20.1913 17.8282 20.3367 17.7319C20.482 17.6357 20.6523 17.584 20.8266 17.5834H20.8753C21.1626 17.5834 21.4382 17.4692 21.6414 17.2661C21.8445 17.0629 21.9587 16.7873 21.9587 16.5C21.9587 16.2127 21.8445 15.9372 21.6414 15.734C21.4382 15.5308 21.1626 15.4167 20.8753 15.4167H20.7832C20.6089 15.416 20.4386 15.3643 20.2933 15.2681C20.148 15.1719 20.034 15.0352 19.9653 14.875V14.8317C19.8932 14.6683 19.8717 14.4871 19.9036 14.3114C19.9354 14.1357 20.0192 13.9735 20.1441 13.8459L20.1766 13.8134C20.2773 13.7127 20.3572 13.5933 20.4117 13.4617C20.4662 13.3302 20.4943 13.1893 20.4943 13.0469C20.4943 12.9045 20.4662 12.7636 20.4117 12.632C20.3572 12.5005 20.2773 12.381 20.1766 12.2804C20.076 12.1797 19.9565 12.0998 19.825 12.0453C19.6935 11.9908 19.5525 11.9627 19.4101 11.9627C19.2678 11.9627 19.1268 11.9908 18.9953 12.0453C18.8638 12.0998 18.7443 12.1797 18.6437 12.2804L18.6112 12.3129C18.4835 12.4378 18.3214 12.5216 18.1456 12.5534C17.9699 12.5853 17.7887 12.5638 17.6253 12.4917C17.4651 12.423 17.3285 12.309 17.2322 12.1637C17.136 12.0184 17.0844 11.8481 17.0837 11.6738V11.625C17.0837 11.3377 16.9695 11.0622 16.7664 10.859C16.5632 10.6558 16.2876 10.5417 16.0003 10.5417C15.713 10.5417 15.4375 10.6558 15.2343 10.859C15.0311 11.0622 14.917 11.3377 14.917 11.625V11.7171C14.9163 11.8914 14.8647 12.0617 14.7684 12.207C14.6722 12.3523 14.5355 12.4664 14.3753 12.535H14.332C14.1686 12.6071 13.9874 12.6286 13.8117 12.5968C13.636 12.5649 13.4738 12.4811 13.3462 12.3563L13.3137 12.3238C13.213 12.223 13.0936 12.1431 12.9621 12.0886C12.8305 12.0341 12.6896 12.006 12.5472 12.006C12.4048 12.006 12.2639 12.0341 12.1323 12.0886C12.0008 12.1431 11.8814 12.223 11.7807 12.3238C11.68 12.4244 11.6001 12.5439 11.5456 12.6754C11.4911 12.8069 11.463 12.9479 11.463 13.0902C11.463 13.2326 11.4911 13.3736 11.5456 13.5051C11.6001 13.6366 11.68 13.7561 11.7807 13.8567L11.8132 13.8892C11.9381 14.0168 12.0219 14.179 12.0537 14.3547C12.0856 14.5304 12.0641 14.7116 11.992 14.875C11.9301 15.0433 11.819 15.1891 11.6731 15.2935C11.5272 15.3978 11.3534 15.4558 11.1741 15.46H11.1253C10.838 15.46 10.5625 15.5742 10.3593 15.7773C10.1561 15.9805 10.042 16.256 10.042 16.5434C10.042 16.8307 10.1561 17.1062 10.3593 17.3094C10.5625 17.5126 10.838 17.6267 11.1253 17.6267H11.2174C11.3917 17.6274 11.562 17.679 11.7073 17.7753C11.8527 17.8715 11.9667 18.0081 12.0353 18.1684C12.1074 18.3317 12.1289 18.513 12.0971 18.6887C12.0652 18.8644 11.9814 19.0265 11.8566 19.1542L11.8241 19.1867C11.7234 19.2873 11.6434 19.4068 11.5889 19.5383C11.5344 19.6698 11.5063 19.8108 11.5063 19.9531C11.5063 20.0955 11.5344 20.2365 11.5889 20.368C11.6434 20.4995 11.7234 20.619 11.8241 20.7196C11.9247 20.8203 12.0442 20.9002 12.1757 20.9548C12.3072 21.0093 12.4482 21.0373 12.5905 21.0373C12.7329 21.0373 12.8739 21.0093 13.0054 20.9548C13.1369 20.9002 13.2564 20.8203 13.357 20.7196L13.3895 20.6871C13.5172 20.5622 13.6793 20.4785 13.855 20.4466C14.0307 20.4147 14.212 20.4362 14.3753 20.5084C14.5436 20.5703 14.6894 20.6814 14.7938 20.8272C14.8981 20.9731 14.9561 21.147 14.9603 21.3263V21.375C14.9603 21.6623 15.0745 21.9379 15.2776 22.1411C15.4808 22.3442 15.7563 22.4584 16.0437 22.4584C16.331 22.4584 16.6065 22.3442 16.8097 22.1411C17.0129 21.9379 17.127 21.6623 17.127 21.375V21.2829C17.1277 21.1086 17.1793 20.9383 17.2756 20.793C17.3718 20.6477 17.5085 20.5337 17.6687 20.465C17.832 20.3929 18.0133 20.3714 18.189 20.4033C18.3647 20.4351 18.5268 20.5189 18.6545 20.6438L18.687 20.6763C18.7876 20.777 18.9071 20.8569 19.0386 20.9114C19.1701 20.9659 19.3111 20.994 19.4535 20.994C19.5958 20.994 19.7368 20.9659 19.8683 20.9114C19.9998 20.8569 20.1193 20.777 20.2199 20.6763C20.3206 20.5757 20.4005 20.4562 20.4551 20.3247C20.5096 20.1931 20.5376 20.0522 20.5376 19.9098C20.5376 19.7674 20.5096 19.6265 20.4551 19.495C20.4005 19.3634 20.3206 19.244 20.2199 19.1434L20.1874 19.1109C20.0625 18.9832 19.9788 18.8211 19.9469 18.6453ZM17.6254 16.5C17.6254 17.3975 16.8978 18.125 16.0004 18.125C15.1029 18.125 14.3754 17.3975 14.3754 16.5C14.3754 15.6025 15.1029 14.875 16.0004 14.875C16.8978 14.875 17.6254 15.6025 17.6254 16.5Z" fill="#6FC1FF"/>
<path d="M20.0087 18.125L20.4661 18.3269L20.4682 18.322L20.0087 18.125ZM19.9469 18.6453L20.4389 18.5561L19.9469 18.6453ZM20.8266 17.5834V17.0834L20.8246 17.0834L20.8266 17.5834ZM20.7832 15.4167L20.7812 15.9167H20.7832V15.4167ZM19.9653 14.875H19.4653C19.4653 14.9427 19.4791 15.0097 19.5058 15.072L19.9653 14.875ZM19.9653 14.8317H20.4653C20.4653 14.7622 20.4508 14.6934 20.4228 14.6298L19.9653 14.8317ZM20.1441 13.8459L19.7905 13.4923L19.7866 13.4962L20.1441 13.8459ZM20.1766 13.8134L19.8232 13.4596L19.823 13.4598L20.1766 13.8134ZM20.1766 12.2804L19.8228 12.6338L19.8232 12.6342L20.1766 12.2804ZM18.6437 12.2804L18.9972 12.634L18.9974 12.6338L18.6437 12.2804ZM18.6112 12.3129L18.9608 12.6704L18.9647 12.6665L18.6112 12.3129ZM18.1456 12.5534L18.0564 12.0615V12.0615L18.1456 12.5534ZM17.6253 12.4917L17.8272 12.0342L17.8223 12.0321L17.6253 12.4917ZM17.0837 11.6738H16.5837L16.5837 11.6758L17.0837 11.6738ZM16.7664 10.859L17.1199 10.5054V10.5054L16.7664 10.859ZM15.2343 10.859L14.8807 10.5054V10.5054L15.2343 10.859ZM14.917 11.7171L15.417 11.7191V11.7171H14.917ZM14.3753 12.535V13.035C14.443 13.035 14.5101 13.0213 14.5723 12.9946L14.3753 12.535ZM14.332 12.535V12.035C14.2625 12.035 14.1937 12.0495 14.1301 12.0776L14.332 12.535ZM13.3462 12.3563L12.9926 12.7098L12.9965 12.7137L13.3462 12.3563ZM13.3137 12.3238L12.9599 12.6771L12.9601 12.6773L13.3137 12.3238ZM11.7807 12.3238L12.1341 12.6775L12.1345 12.6771L11.7807 12.3238ZM11.7807 13.8567L12.1343 13.5031L12.1341 13.5029L11.7807 13.8567ZM11.8132 13.8892L12.1707 13.5395L12.1668 13.5356L11.8132 13.8892ZM12.0537 14.3547L11.5618 14.4439L11.5618 14.4439L12.0537 14.3547ZM11.992 14.875L11.5346 14.6731C11.5303 14.6828 11.5264 14.6925 11.5227 14.7024L11.992 14.875ZM11.1741 15.46V15.9602L11.1858 15.9599L11.1741 15.46ZM10.3593 15.7773L10.0057 15.4238H10.0057L10.3593 15.7773ZM10.3593 17.3094L10.0057 17.6629H10.0057L10.3593 17.3094ZM11.2174 17.6267L11.2194 17.1267H11.2174V17.6267ZM12.0353 18.1684L11.5757 18.3653L11.5779 18.3702L12.0353 18.1684ZM12.0971 18.6887L11.6051 18.5995H11.6051L12.0971 18.6887ZM11.8566 19.1542L12.2101 19.5078L12.214 19.5038L11.8566 19.1542ZM11.8241 19.1867L12.1774 19.5404L12.1776 19.5402L11.8241 19.1867ZM11.8241 20.7196L12.1778 20.3662L12.1774 20.3659L11.8241 20.7196ZM13.357 20.7196L13.0034 20.3661L13.0032 20.3662L13.357 20.7196ZM13.3895 20.6871L13.0398 20.3297L13.0359 20.3336L13.3895 20.6871ZM14.3753 20.5084L14.1734 20.9658C14.1831 20.97 14.1928 20.974 14.2027 20.9776L14.3753 20.5084ZM14.9603 21.3263H15.4605L15.4602 21.3146L14.9603 21.3263ZM17.127 21.2829L16.627 21.2809V21.2829H17.127ZM17.6687 20.465L17.8656 20.9246L17.8705 20.9225L17.6687 20.465ZM18.189 20.4033L18.0998 20.8952L18.189 20.4033ZM18.6545 20.6438L19.0081 20.2902L19.0041 20.2863L18.6545 20.6438ZM18.687 20.6763L19.0407 20.3229L19.0406 20.3227L18.687 20.6763ZM20.2199 20.6763L19.8666 20.3225L19.8662 20.3229L20.2199 20.6763ZM20.2199 19.1434L19.8664 19.4969L19.8666 19.4971L20.2199 19.1434ZM20.1874 19.1109L19.83 19.4605L19.8339 19.4644L20.1874 19.1109ZM19.5512 17.9231C19.4388 18.1779 19.4052 18.4605 19.4549 18.7345L20.4389 18.5561C20.4248 18.4787 20.4343 18.3989 20.4661 18.3269L19.5512 17.9231ZM20.0606 17.3151C19.834 17.4651 19.6562 17.6782 19.5491 17.9281L20.4682 18.322C20.4985 18.2514 20.5487 18.1912 20.6127 18.1488L20.0606 17.3151ZM20.8246 17.0834C20.5528 17.0844 20.2872 17.165 20.0606 17.3151L20.6127 18.1488C20.6768 18.1064 20.7518 18.0837 20.8286 18.0834L20.8246 17.0834ZM20.8753 17.0834H20.8266V18.0834H20.8753V17.0834ZM21.2878 16.9125C21.1784 17.0219 21.03 17.0834 20.8753 17.0834V18.0834C21.2953 18.0834 21.698 17.9165 21.9949 17.6196L21.2878 16.9125ZM21.4587 16.5C21.4587 16.6547 21.3972 16.8031 21.2878 16.9125L21.9949 17.6196C22.2918 17.3227 22.4587 16.9199 22.4587 16.5H21.4587ZM21.2878 16.0875C21.3972 16.1969 21.4587 16.3453 21.4587 16.5H22.4587C22.4587 16.0801 22.2918 15.6774 21.9949 15.3804L21.2878 16.0875ZM20.8753 15.9167C21.03 15.9167 21.1784 15.9781 21.2878 16.0875L21.9949 15.3804C21.698 15.0835 21.2953 14.9167 20.8753 14.9167V15.9167ZM20.7832 15.9167H20.8753V14.9167H20.7832V15.9167ZM20.0173 15.685C20.2439 15.8351 20.5094 15.9156 20.7812 15.9167L20.7852 14.9167C20.7084 14.9164 20.6334 14.8936 20.5694 14.8512L20.0173 15.685ZM19.5058 15.072C19.6128 15.3218 19.7906 15.5349 20.0173 15.685L20.5694 14.8512C20.5054 14.8088 20.4551 14.7486 20.4249 14.6781L19.5058 15.072ZM19.4653 14.8317V14.875H20.4653V14.8317H19.4653ZM19.4116 14.2222C19.3619 14.4962 19.3955 14.7788 19.5079 15.0336L20.4228 14.6298C20.391 14.5578 20.3815 14.478 20.3956 14.4006L19.4116 14.2222ZM19.7866 13.4962C19.5919 13.6953 19.4613 13.9481 19.4116 14.2222L20.3956 14.4006C20.4096 14.3232 20.4465 14.2517 20.5015 14.1955L19.7866 13.4962ZM19.823 13.4598L19.7905 13.4923L20.4976 14.1994L20.5301 14.1669L19.823 13.4598ZM19.9498 13.2703C19.9205 13.3411 19.8775 13.4054 19.8232 13.4596L20.5299 14.1671C20.6771 14.0201 20.7939 13.8454 20.8736 13.6532L19.9498 13.2703ZM19.9943 13.0469C19.9943 13.1236 19.9792 13.1995 19.9498 13.2703L20.8736 13.6532C20.9533 13.461 20.9943 13.255 20.9943 13.0469H19.9943ZM19.9498 12.8235C19.9792 12.8943 19.9943 12.9702 19.9943 13.0469H20.9943C20.9943 12.8388 20.9533 12.6328 20.8736 12.4406L19.9498 12.8235ZM19.8232 12.6342C19.8775 12.6884 19.9205 12.7527 19.9498 12.8235L20.8736 12.4406C20.7939 12.2484 20.6771 12.0737 20.5299 11.9267L19.8232 12.6342ZM19.6335 12.5072C19.7043 12.5365 19.7686 12.5796 19.8228 12.6338L20.5303 11.9271C20.3833 11.7799 20.2087 11.6631 20.0164 11.5834L19.6335 12.5072ZM19.4101 12.4627C19.4868 12.4627 19.5627 12.4778 19.6335 12.5072L20.0164 11.5834C19.8242 11.5037 19.6182 11.4627 19.4101 11.4627V12.4627ZM19.1867 12.5072C19.2576 12.4778 19.3335 12.4627 19.4101 12.4627V11.4627C19.202 11.4627 18.996 11.5037 18.8038 11.5834L19.1867 12.5072ZM18.9974 12.6338C19.0516 12.5796 19.1159 12.5365 19.1867 12.5072L18.8038 11.5834C18.6116 11.6631 18.437 11.7799 18.2899 11.9271L18.9974 12.6338ZM18.9647 12.6665L18.9972 12.634L18.2901 11.9269L18.2576 11.9594L18.9647 12.6665ZM18.2348 13.0454C18.5089 12.9957 18.7617 12.8651 18.9608 12.6704L18.2615 11.9555C18.2053 12.0105 18.1339 12.0474 18.0564 12.0615L18.2348 13.0454ZM17.4234 12.9491C17.6782 13.0616 17.9608 13.0951 18.2348 13.0454L18.0564 12.0615C17.979 12.0755 17.8992 12.066 17.8272 12.0343L17.4234 12.9491ZM16.8154 12.4398C16.9655 12.6664 17.1785 12.8442 17.4284 12.9513L17.8223 12.0321C17.7517 12.0019 17.6915 11.9516 17.6491 11.8876L16.8154 12.4398ZM16.5837 11.6758C16.5847 11.9476 16.6653 12.2131 16.8154 12.4398L17.6491 11.8876C17.6067 11.8236 17.584 11.7486 17.5837 11.6718L16.5837 11.6758ZM16.5837 11.625V11.6738H17.5837V11.625H16.5837ZM16.4128 11.2125C16.5222 11.3219 16.5837 11.4703 16.5837 11.625H17.5837C17.5837 11.2051 17.4168 10.8024 17.1199 10.5054L16.4128 11.2125ZM16.0003 11.0417C16.155 11.0417 16.3034 11.1031 16.4128 11.2125L17.1199 10.5054C16.823 10.2085 16.4203 10.0417 16.0003 10.0417V11.0417ZM15.5878 11.2125C15.6972 11.1031 15.8456 11.0417 16.0003 11.0417V10.0417C15.5804 10.0417 15.1777 10.2085 14.8807 10.5054L15.5878 11.2125ZM15.417 11.625C15.417 11.4703 15.4785 11.3219 15.5878 11.2125L14.8807 10.5054C14.5838 10.8024 14.417 11.2051 14.417 11.625H15.417ZM15.417 11.7171V11.625H14.417V11.7171H15.417ZM15.1853 12.4831C15.3354 12.2565 15.4159 11.9909 15.417 11.7191L14.417 11.7151C14.4167 11.7919 14.3939 11.8669 14.3515 11.9309L15.1853 12.4831ZM14.5723 12.9946C14.8221 12.8875 15.0352 12.7097 15.1853 12.4831L14.3515 11.9309C14.3091 11.995 14.2489 12.0452 14.1784 12.0755L14.5723 12.9946ZM14.332 13.035H14.3753V12.035H14.332V13.035ZM13.7225 13.0888C13.9965 13.1384 14.2791 13.1049 14.5339 12.9925L14.1301 12.0776C14.0581 12.1094 13.9783 12.1188 13.9009 12.1048L13.7225 13.0888ZM12.9965 12.7137C13.1956 12.9084 13.4485 13.0391 13.7225 13.0888L13.9009 12.1048C13.8235 12.0908 13.752 12.0539 13.6958 11.9988L12.9965 12.7137ZM12.9601 12.6773L12.9926 12.7098L13.6997 12.0027L13.6672 11.9702L12.9601 12.6773ZM12.7706 12.5505C12.8414 12.5799 12.9057 12.6229 12.9599 12.6771L13.6674 11.9704C13.5204 11.8232 13.3457 11.7064 13.1535 11.6267L12.7706 12.5505ZM12.5472 12.506C12.6239 12.506 12.6998 12.5212 12.7706 12.5505L13.1535 11.6267C12.9613 11.5471 12.7553 11.506 12.5472 11.506V12.506ZM12.3238 12.5505C12.3946 12.5212 12.4705 12.506 12.5472 12.506V11.506C12.3391 11.506 12.1331 11.5471 11.9409 11.6267L12.3238 12.5505ZM12.1345 12.6771C12.1887 12.6229 12.253 12.5799 12.3238 12.5505L11.9409 11.6267C11.7487 11.7064 11.574 11.8232 11.427 11.9704L12.1345 12.6771ZM12.0075 12.8668C12.0368 12.796 12.0799 12.7317 12.1341 12.6775L11.4274 11.97C11.2802 12.1171 11.1634 12.2917 11.0837 12.4839L12.0075 12.8668ZM11.963 13.0902C11.963 13.0136 11.9781 12.9377 12.0075 12.8668L11.0837 12.4839C11.004 12.6761 10.963 12.8822 10.963 13.0902H11.963ZM12.0075 13.3136C11.9781 13.2428 11.963 13.1669 11.963 13.0902H10.963C10.963 13.2983 11.004 13.5043 11.0837 13.6966L12.0075 13.3136ZM12.1341 13.5029C12.0799 13.4488 12.0368 13.3844 12.0075 13.3136L11.0837 13.6966C11.1634 13.8888 11.2802 14.0634 11.4274 14.2104L12.1341 13.5029ZM12.1668 13.5356L12.1343 13.5031L11.4272 14.2102L11.4597 14.2427L12.1668 13.5356ZM12.5457 14.2655C12.496 13.9915 12.3654 13.7386 12.1707 13.5396L11.4558 14.2388C11.5108 14.2951 11.5477 14.3665 11.5618 14.4439L12.5457 14.2655ZM12.4494 15.0769C12.5619 14.8221 12.5954 14.5395 12.5457 14.2655L11.5618 14.4439C11.5758 14.5213 11.5663 14.6012 11.5346 14.6731L12.4494 15.0769ZM11.964 15.7001C12.1915 15.5375 12.3647 15.3101 12.4613 15.0476L11.5227 14.7024C11.4955 14.7766 11.4465 14.8408 11.3822 14.8868L11.964 15.7001ZM11.1858 15.9599C11.4654 15.9533 11.7365 15.8628 11.964 15.7001L11.3822 14.8868C11.318 14.9327 11.2414 14.9583 11.1624 14.9602L11.1858 15.9599ZM11.1253 15.96H11.1741V14.96H11.1253V15.96ZM10.7128 16.1309C10.8222 16.0215 10.9706 15.96 11.1253 15.96V14.96C10.7054 14.96 10.3027 15.1268 10.0057 15.4238L10.7128 16.1309ZM10.542 16.5434C10.542 16.3886 10.6035 16.2403 10.7128 16.1309L10.0057 15.4238C9.70881 15.7207 9.54199 16.1234 9.54199 16.5434H10.542ZM10.7128 16.9558C10.6035 16.8464 10.542 16.6981 10.542 16.5434H9.54199C9.54199 16.9633 9.70881 17.366 10.0057 17.6629L10.7128 16.9558ZM11.1253 17.1267C10.9706 17.1267 10.8222 17.0652 10.7128 16.9558L10.0057 17.6629C10.3027 17.9599 10.7054 18.1267 11.1253 18.1267V17.1267ZM11.2174 17.1267H11.1253V18.1267H11.2174V17.1267ZM11.9834 17.3584C11.7568 17.2083 11.4912 17.1278 11.2194 17.1267L11.2154 18.1267C11.2922 18.127 11.3672 18.1497 11.4313 18.1921L11.9834 17.3584ZM12.4949 17.9714C12.3878 17.7216 12.21 17.5085 11.9834 17.3584L11.4313 18.1921C11.4953 18.2345 11.5455 18.2947 11.5758 18.3653L12.4949 17.9714ZM12.5891 18.7779C12.6387 18.5039 12.6052 18.2212 12.4928 17.9665L11.5779 18.3702C11.6097 18.4422 11.6191 18.5221 11.6051 18.5995L12.5891 18.7779ZM12.214 19.5038C12.4087 19.3047 12.5394 19.0519 12.5891 18.7779L11.6051 18.5995C11.5911 18.6769 11.5542 18.7483 11.4991 18.8046L12.214 19.5038ZM12.1776 19.5402L12.2101 19.5077L11.503 18.8006L11.4705 18.8331L12.1776 19.5402ZM12.0508 19.7298C12.0802 19.6589 12.1232 19.5946 12.1774 19.5404L11.4707 18.8329C11.3235 18.98 11.2067 19.1546 11.127 19.3468L12.0508 19.7298ZM12.0063 19.9531C12.0063 19.8765 12.0215 19.8006 12.0508 19.7298L11.127 19.3468C11.0474 19.539 11.0063 19.7451 11.0063 19.9531H12.0063ZM12.0508 20.1765C12.0215 20.1057 12.0063 20.0298 12.0063 19.9531H11.0063C11.0063 20.1612 11.0474 20.3673 11.127 20.5595L12.0508 20.1765ZM12.1774 20.3659C12.1232 20.3117 12.0802 20.2473 12.0508 20.1765L11.127 20.5595C11.2067 20.7517 11.3235 20.9263 11.4707 21.0734L12.1774 20.3659ZM12.3672 20.4929C12.2963 20.4635 12.232 20.4205 12.1778 20.3662L11.4703 21.073C11.6174 21.2202 11.792 21.337 11.9842 21.4166L12.3672 20.4929ZM12.5905 20.5373C12.5139 20.5373 12.438 20.5222 12.3672 20.4929L11.9842 21.4166C12.1764 21.4963 12.3825 21.5373 12.5905 21.5373V20.5373ZM12.8139 20.4929C12.7431 20.5222 12.6672 20.5373 12.5905 20.5373V21.5373C12.7986 21.5373 13.0046 21.4963 13.1969 21.4166L12.8139 20.4929ZM13.0032 20.3662C12.9491 20.4205 12.8847 20.4635 12.8139 20.4929L13.1969 21.4166C13.3891 21.337 13.5637 21.2202 13.7107 21.073L13.0032 20.3662ZM13.0359 20.3336L13.0034 20.3661L13.7105 21.0732L13.743 21.0407L13.0359 20.3336ZM13.7658 19.9546C13.4918 20.0043 13.2389 20.1349 13.0399 20.3297L13.7391 21.0445C13.7954 20.9895 13.8668 20.9526 13.9442 20.9386L13.7658 19.9546ZM14.5772 20.0509C14.3224 19.9385 14.0398 19.9049 13.7658 19.9546L13.9442 20.9386C14.0216 20.9245 14.1015 20.934 14.1734 20.9658L14.5772 20.0509ZM15.2005 20.5364C15.0378 20.3089 14.8104 20.1356 14.5479 20.0391L14.2027 20.9776C14.2769 21.0049 14.3411 21.0538 14.3871 21.1181L15.2005 20.5364ZM15.4602 21.3146C15.4536 21.035 15.3631 20.7638 15.2005 20.5364L14.3871 21.1181C14.433 21.1824 14.4586 21.259 14.4605 21.338L15.4602 21.3146ZM15.4603 21.375V21.3263H14.4603V21.375H15.4603ZM15.6312 21.7875C15.5218 21.6781 15.4603 21.5297 15.4603 21.375H14.4603C14.4603 21.7949 14.6271 22.1977 14.9241 22.4946L15.6312 21.7875ZM16.0437 21.9584C15.8889 21.9584 15.7406 21.8969 15.6312 21.7875L14.9241 22.4946C15.221 22.7915 15.6237 22.9584 16.0437 22.9584V21.9584ZM16.4561 21.7875C16.3467 21.8969 16.1984 21.9584 16.0437 21.9584V22.9584C16.4636 22.9584 16.8663 22.7915 17.1632 22.4946L16.4561 21.7875ZM16.627 21.375C16.627 21.5297 16.5655 21.6781 16.4561 21.7875L17.1632 22.4946C17.4602 22.1977 17.627 21.7949 17.627 21.375H16.627ZM16.627 21.2829V21.375H17.627V21.2829H16.627ZM16.8587 20.5169C16.7086 20.7436 16.6281 21.0091 16.627 21.2809L17.627 21.2849C17.6273 21.2081 17.65 21.1331 17.6924 21.0691L16.8587 20.5169ZM17.4717 20.0055C17.2219 20.1125 17.0088 20.2903 16.8587 20.5169L17.6924 21.0691C17.7348 21.0051 17.795 20.9548 17.8656 20.9246L17.4717 20.0055ZM18.2782 19.9113C18.0042 19.8616 17.7216 19.8951 17.4668 20.0076L17.8705 20.9225C17.9425 20.8907 18.0224 20.8812 18.0998 20.8952L18.2782 19.9113ZM19.0041 20.2863C18.805 20.0916 18.5522 19.961 18.2782 19.9113L18.0998 20.8952C18.1772 20.9093 18.2486 20.9462 18.3049 21.0012L19.0041 20.2863ZM19.0406 20.3227L19.0081 20.2902L18.3009 20.9973L18.3334 21.0298L19.0406 20.3227ZM19.2301 20.4495C19.1593 20.4202 19.0949 20.3772 19.0407 20.3229L18.3332 21.0296C18.4803 21.1768 18.6549 21.2936 18.8471 21.3733L19.2301 20.4495ZM19.4535 20.494C19.3768 20.494 19.3009 20.4789 19.2301 20.4495L18.8471 21.3733C19.0393 21.453 19.2454 21.494 19.4535 21.494V20.494ZM19.6768 20.4495C19.606 20.4789 19.5301 20.494 19.4535 20.494V21.494C19.6615 21.494 19.8676 21.453 20.0598 21.3733L19.6768 20.4495ZM19.8662 20.3229C19.812 20.3772 19.7476 20.4202 19.6768 20.4495L20.0598 21.3733C20.252 21.2936 20.4266 21.1768 20.5737 21.0296L19.8662 20.3229ZM19.9932 20.1332C19.9638 20.204 19.9208 20.2683 19.8666 20.3225L20.5733 21.03C20.7205 20.883 20.8373 20.7083 20.9169 20.5161L19.9932 20.1332ZM20.0376 19.9098C20.0376 19.9865 20.0225 20.0624 19.9932 20.1332L20.9169 20.5161C20.9966 20.3239 21.0376 20.1179 21.0376 19.9098H20.0376ZM19.9932 19.6864C20.0225 19.7572 20.0376 19.8332 20.0376 19.9098H21.0376C21.0376 19.7017 20.9966 19.4957 20.9169 19.3035L19.9932 19.6864ZM19.8666 19.4971C19.9208 19.5513 19.9638 19.6156 19.9932 19.6864L20.9169 19.3035C20.8373 19.1113 20.7205 18.9367 20.5733 18.7896L19.8666 19.4971ZM19.8339 19.4644L19.8664 19.4969L20.5735 18.7898L20.541 18.7573L19.8339 19.4644ZM19.4549 18.7345C19.5046 19.0086 19.6352 19.2614 19.83 19.4605L20.5448 18.7612C20.4898 18.705 20.4529 18.6335 20.4389 18.5561L19.4549 18.7345ZM16.0004 18.625C17.174 18.625 18.1254 17.6736 18.1254 16.5H17.1254C17.1254 17.1213 16.6217 17.625 16.0004 17.625V18.625ZM13.8754 16.5C13.8754 17.6736 14.8268 18.625 16.0004 18.625V17.625C15.379 17.625 14.8754 17.1213 14.8754 16.5H13.8754ZM16.0004 14.375C14.8268 14.375 13.8754 15.3264 13.8754 16.5H14.8754C14.8754 15.8787 15.379 15.375 16.0004 15.375V14.375ZM18.1254 16.5C18.1254 15.3264 17.174 14.375 16.0004 14.375V15.375C16.6217 15.375 17.1254 15.8787 17.1254 16.5H18.1254Z" fill="black"/>
</g>
<defs>
<clipPath id="clip0_7813_5049">
<rect width="13" height="13" fill="white" transform="translate(9.5 10)"/>
</clipPath>
</defs>
</svg>
