<svg width="24" height="24" viewBox="0 0 24 24" fill="none" xmlns="http://www.w3.org/2000/svg">
<path d="M13.9297 5.52897C13.7272 5.72568 13.6138 5.99016 13.6138 6.26562C13.6138 6.54107 13.7272 6.80555 13.9297 7.00227L15.6976 8.68604C15.9042 8.87886 16.1819 8.98686 16.4711 8.98686C16.7603 8.98686 17.038 8.87886 17.2446 8.68604L21.4103 4.71865C21.966 5.88802 22.1342 7.19089 21.8926 8.45362C21.651 9.71636 21.0111 10.879 20.0582 11.7866C19.1052 12.6942 17.8844 13.3036 16.5586 13.5337C15.2327 13.7637 13.8647 13.6035 12.6368 13.0744L5.00147 20.3462C4.56188 20.7648 3.96567 21 3.344 21C2.72234 21 2.12613 20.7648 1.68654 20.3462C1.24696 19.9275 1 19.3597 1 18.7676C1 18.1755 1.24696 17.6077 1.68654 17.1891L9.32192 9.9173C8.7663 8.74793 8.59807 7.44506 8.83964 6.18233C9.08122 4.91959 9.72113 3.75696 10.6741 2.84937C11.6271 1.94179 12.8478 1.33235 14.1737 1.10227C15.4996 0.872199 16.8676 1.03242 18.0954 1.56158L13.9407 5.51844L13.9297 5.52897Z" fill="#7091B7" stroke="#0E1C2C" stroke-linecap="round" stroke-linejoin="round"/>
<path d="M18 12H14C13.7348 12 13.4804 12.1054 13.2929 12.2929C13.1054 12.4804 13 12.7348 13 13V21C13 21.2652 13.1054 21.5196 13.2929 21.7071C13.4804 21.8946 13.7348 22 14 22H20C20.2652 22 20.5196 21.8946 20.7071 21.7071C20.8946 21.5196 21 21.2652 21 21V15L18 12Z" fill="#EBE8E8" stroke="black" stroke-linecap="round" stroke-linejoin="round"/>
<path d="M18 12V15H21" stroke="black" stroke-linecap="round" stroke-linejoin="round"/>
<path d="M14 13H10C9.73478 13 9.48043 13.1054 9.29289 13.2929C9.10536 13.4804 9 13.7348 9 14V22C9 22.2652 9.10536 22.5196 9.29289 22.7071C9.48043 22.8946 9.73478 23 10 23H16C16.2652 23 16.5196 22.8946 16.7071 22.7071C16.8946 22.5196 17 22.2652 17 22V16L14 13Z" fill="white" stroke="black" stroke-linecap="round" stroke-linejoin="round"/>
<path d="M14 13V16H17" stroke="black" stroke-linecap="round" stroke-linejoin="round"/>
</svg>
