<svg width="24" height="24" viewBox="0 0 24 24" fill="none" xmlns="http://www.w3.org/2000/svg">
<path d="M13.9297 5.52897C13.7272 5.72568 13.6138 5.99016 13.6138 6.26562C13.6138 6.54107 13.7272 6.80555 13.9297 7.00227L15.6976 8.68604C15.9042 8.87886 16.1819 8.98686 16.4711 8.98686C16.7603 8.98686 17.038 8.87886 17.2446 8.68604L21.4103 4.71865C21.966 5.88802 22.1342 7.19089 21.8926 8.45362C21.651 9.71636 21.0111 10.879 20.0582 11.7866C19.1052 12.6942 17.8844 13.3036 16.5586 13.5337C15.2327 13.7637 13.8647 13.6035 12.6368 13.0744L5.00147 20.3462C4.56188 20.7648 3.96567 21 3.344 21C2.72234 21 2.12613 20.7648 1.68654 20.3462C1.24696 19.9275 1 19.3597 1 18.7676C1 18.1755 1.24696 17.6077 1.68654 17.1891L9.32192 9.9173C8.7663 8.74793 8.59807 7.44506 8.83964 6.18233C9.08122 4.91959 9.72113 3.75696 10.6741 2.84937C11.6271 1.94179 12.8478 1.33235 14.1737 1.10227C15.4996 0.872199 16.8676 1.03242 18.0954 1.56158L13.9407 5.51844L13.9297 5.52897Z" fill="#7091B7" stroke="#0E1C2C" stroke-linecap="round" stroke-linejoin="round"/>
<path d="M16.25 22.5C19.7018 22.5 22.5 19.7018 22.5 16.25C22.5 12.7982 19.7018 10 16.25 10C12.7982 10 10 12.7982 10 16.25C10 19.7018 12.7982 22.5 16.25 22.5Z" fill="#E06017" stroke="black" stroke-linecap="round" stroke-linejoin="round"/>
<path d="M15.0341 18.3881V18.3064C15.0406 17.7737 15.1006 17.3499 15.2141 17.0348C15.3309 16.7198 15.4964 16.4649 15.7105 16.2702C15.9246 16.0754 16.1825 15.8979 16.4842 15.7375C16.6788 15.6286 16.854 15.5069 17.0097 15.3723C17.1655 15.2377 17.2887 15.0831 17.3796 14.9084C17.4704 14.7337 17.5158 14.5403 17.5158 14.3284C17.5158 14.0735 17.4477 13.853 17.3114 13.6668C17.1752 13.4807 16.9935 13.3375 16.7664 13.2372C16.5426 13.1341 16.2928 13.0826 16.017 13.0826C15.7672 13.0826 15.5288 13.1284 15.3017 13.22C15.0746 13.3117 14.8865 13.4549 14.7372 13.6496C14.588 13.8415 14.502 14.0893 14.4793 14.3928H13C13.0227 13.8773 13.1703 13.442 13.4428 13.0869C13.7153 12.7289 14.0754 12.4582 14.5231 12.2749C14.974 12.0916 15.472 12 16.017 12C16.614 12 17.1363 12.0988 17.5839 12.2964C18.0316 12.4912 18.3788 12.7647 18.6253 13.1169C18.8751 13.4663 19 13.8745 19 14.3413C19 14.6621 18.9432 14.9513 18.8297 15.2091C18.7161 15.464 18.5539 15.6916 18.3431 15.8921C18.1354 16.0926 17.8856 16.2702 17.5937 16.4248C17.3179 16.5766 17.0941 16.7341 16.9221 16.8974C16.7534 17.0606 16.6302 17.2539 16.5523 17.4773C16.4745 17.7007 16.4323 17.9771 16.4258 18.3064V18.3881H15.0341ZM15.7689 21C15.5028 21 15.2741 20.9169 15.0827 20.7508C14.8913 20.5819 14.7956 20.3785 14.7956 20.1408C14.7956 19.906 14.8913 19.7055 15.0827 19.5394C15.2741 19.3704 15.5028 19.2859 15.7689 19.2859C16.0316 19.2859 16.2587 19.3704 16.4501 19.5394C16.6448 19.7055 16.7421 19.906 16.7421 20.1408C16.7421 20.2983 16.6967 20.443 16.6058 20.5747C16.5182 20.7036 16.4015 20.8067 16.2555 20.884C16.1095 20.9613 15.9473 21 15.7689 21Z" fill="white"/>
</svg>
