<svg width="24" height="24" viewBox="0 0 24 24" fill="none" xmlns="http://www.w3.org/2000/svg">
<path d="M13.9297 5.52897C13.7272 5.72568 13.6138 5.99016 13.6138 6.26562C13.6138 6.54107 13.7272 6.80555 13.9297 7.00227L15.6976 8.68604C15.9042 8.87886 16.1819 8.98686 16.4711 8.98686C16.7603 8.98686 17.038 8.87886 17.2446 8.68604L21.4103 4.71865C21.966 5.88802 22.1342 7.19089 21.8926 8.45362C21.651 9.71636 21.0111 10.879 20.0582 11.7866C19.1052 12.6942 17.8844 13.3036 16.5586 13.5337C15.2327 13.7637 13.8647 13.6035 12.6368 13.0744L5.00147 20.3462C4.56188 20.7648 3.96567 21 3.344 21C2.72234 21 2.12613 20.7648 1.68654 20.3462C1.24696 19.9275 1 19.3597 1 18.7676C1 18.1756 1.24696 17.6077 1.68654 17.1891L9.32192 9.9173C8.7663 8.74793 8.59807 7.44506 8.83964 6.18233C9.08122 4.91959 9.72113 3.75696 10.6741 2.84937C11.6271 1.94178 12.8478 1.33235 14.1737 1.10227C15.4996 0.872199 16.8676 1.03242 18.0954 1.56158L13.9407 5.51844L13.9297 5.52897Z" fill="#7091B7" stroke="#0E1C2C" stroke-linecap="round" stroke-linejoin="round"/>
<path d="M21.25 15.8333C21.25 19.9167 16 23.4167 16 23.4167C16 23.4167 10.75 19.9167 10.75 15.8333C10.75 14.441 11.3031 13.1056 12.2877 12.121C13.2723 11.1365 14.6076 10.5833 16 10.5833C17.3924 10.5833 18.7277 11.1365 19.7123 12.121C20.6969 13.1056 21.25 14.441 21.25 15.8333Z" fill="#6FC1FF" stroke="black" stroke-linecap="round" stroke-linejoin="round"/>
<path d="M16 17.5833C16.9665 17.5833 17.75 16.7998 17.75 15.8333C17.75 14.8668 16.9665 14.0833 16 14.0833C15.0335 14.0833 14.25 14.8668 14.25 15.8333C14.25 16.7998 15.0335 17.5833 16 17.5833Z" fill="white" stroke="black" stroke-linecap="round" stroke-linejoin="round"/>
</svg>
