<svg width="25" height="24" viewBox="0 0 25 24" fill="none" xmlns="http://www.w3.org/2000/svg">
<path d="M14.4297 5.52897C14.2272 5.72568 14.1138 5.99016 14.1138 6.26562C14.1138 6.54107 14.2272 6.80555 14.4297 7.00227L16.1976 8.68604C16.4042 8.87886 16.6819 8.98686 16.9711 8.98686C17.2603 8.98686 17.538 8.87886 17.7446 8.68604L21.9103 4.71865C22.466 5.88802 22.6342 7.19089 22.3926 8.45362C22.151 9.71636 21.5111 10.879 20.5582 11.7866C19.6052 12.6942 18.3844 13.3036 17.0586 13.5337C15.7327 13.7637 14.3647 13.6035 13.1368 13.0744L5.50147 20.3462C5.06188 20.7648 4.46567 21 3.844 21C3.22234 21 2.62613 20.7648 2.18654 20.3462C1.74696 19.9275 1.5 19.3597 1.5 18.7676C1.5 18.1756 1.74696 17.6077 2.18654 17.1891L9.82192 9.9173C9.2663 8.74793 9.09807 7.44506 9.33964 6.18233C9.58122 4.91959 10.2211 3.75696 11.1741 2.84937C12.1271 1.94178 13.3478 1.33235 14.6737 1.10227C15.9996 0.872199 17.3676 1.03242 18.5954 1.56158L14.4407 5.51844L14.4297 5.52897Z" fill="#7091B7" stroke="#0E1C2C" stroke-linecap="round" stroke-linejoin="round"/>
<path d="M21.75 15.8333C21.75 19.9166 16.5 23.4166 16.5 23.4166C16.5 23.4166 11.25 19.9166 11.25 15.8333C11.25 14.4409 11.8031 13.1056 12.7877 12.121C13.7723 11.1364 15.1076 10.5833 16.5 10.5833C17.8924 10.5833 19.2277 11.1364 20.2123 12.121C21.1969 13.1056 21.75 14.4409 21.75 15.8333Z" fill="#41B94D" stroke="black" stroke-linecap="round" stroke-linejoin="round"/>
<path d="M16.5 17.5833C17.4665 17.5833 18.25 16.7998 18.25 15.8333C18.25 14.8668 17.4665 14.0833 16.5 14.0833C15.5335 14.0833 14.75 14.8668 14.75 15.8333C14.75 16.7998 15.5335 17.5833 16.5 17.5833Z" fill="white" stroke="black" stroke-linecap="round" stroke-linejoin="round"/>
</svg>
