<svg width="25" height="24" viewBox="0 0 25 24" fill="none" xmlns="http://www.w3.org/2000/svg">
    <path
        d="M14.4297 5.52897C14.2272 5.72568 14.1138 5.99016 14.1138 6.26562C14.1138 6.54107 14.2272 6.80555 14.4297 7.00227L16.1976 8.68604C16.4042 8.87886 16.6819 8.98686 16.9711 8.98686C17.2603 8.98686 17.538 8.87886 17.7446 8.68604L21.9103 4.71865C22.466 5.88802 22.6342 7.19089 22.3926 8.45362C22.151 9.71636 21.5111 10.879 20.5582 11.7866C19.6052 12.6942 18.3844 13.3036 17.0586 13.5337C15.7327 13.7637 14.3647 13.6035 13.1368 13.0744L5.50147 20.3462C5.06188 20.7648 4.46567 21 3.844 21C3.22234 21 2.62613 20.7648 2.18654 20.3462C1.74696 19.9275 1.5 19.3597 1.5 18.7676C1.5 18.1755 1.74696 17.6077 2.18654 17.1891L9.82192 9.9173C9.2663 8.74793 9.09807 7.44506 9.33964 6.18233C9.58122 4.91959 10.2211 3.75696 11.1741 2.84937C12.1271 1.94179 13.3478 1.33235 14.6737 1.10227C15.9996 0.872199 17.3676 1.03242 18.5954 1.56158L14.4407 5.51844L14.4297 5.52897Z"
        fill="#7091B7" stroke="#0E1C2C" stroke-linecap="round" stroke-linejoin="round" />
    <path
        d="M18.5 12H14.5C14.2348 12 13.9804 12.1054 13.7929 12.2929C13.6054 12.4804 13.5 12.7348 13.5 13V21C13.5 21.2652 13.6054 21.5196 13.7929 21.7071C13.9804 21.8946 14.2348 22 14.5 22H20.5C20.7652 22 21.0196 21.8946 21.2071 21.7071C21.3946 21.5196 21.5 21.2652 21.5 21V15L18.5 12Z"
        fill="white" stroke="black" stroke-linecap="round" stroke-linejoin="round" />
    <path d="M18.5 12V15H21.5" stroke="black" stroke-linecap="round" stroke-linejoin="round" />
</svg>