<svg width="24" height="24" viewBox="0 0 24 24" fill="none" xmlns="http://www.w3.org/2000/svg">
<circle cx="12" cy="12" r="12" fill="#023A66"/>
<path fill-rule="evenodd" clip-rule="evenodd" d="M6.68983 14.7246V13.52H5V11.6359H6.68983V4H12.6016C13.8919 4 14.9609 4.20765 15.8085 4.62296C16.6561 5.03826 17.2905 5.60632 17.7116 6.32713C18.1327 7.04318 18.3433 7.84992 18.3433 8.74735C18.3433 9.64957 18.13 10.4611 17.7035 11.1819C17.2824 11.8979 16.6453 12.466 15.7923 12.8861C14.9447 13.3014 13.9352 13.5354 12.6503 13.5354L10.2463 13.52H9.19221V14.7246H16.3183V16.6087H9.19221V18.6645H6.68983V16.6087H5.00002V14.7246H6.68983ZM9.19221 5.89751V11.633H12.3667C13.182 11.633 13.8433 11.5089 14.3508 11.2607C14.8583 11.0077 15.2308 10.664 15.4684 10.2296C15.7059 9.79516 15.8247 9.30109 15.8247 8.74735C15.8247 8.19362 15.7059 7.70194 15.4684 7.27231C15.2308 6.84268 14.8556 6.50615 14.3427 6.26269C13.8352 6.01924 13.1658 5.89751 12.3343 5.89751H9.19221Z" fill="#EBF4FF"/>
</svg>
