<svg width="24" height="24" viewBox="0 0 24 24" fill="none" xmlns="http://www.w3.org/2000/svg">
<circle cx="12" cy="12" r="12" fill="#16B025"/>
<path fill-rule="evenodd" clip-rule="evenodd" d="M5.7784 22.2632C2.31415 20.1587 0 16.3496 0 12C0 5.37258 5.37258 0 12 0C16.3496 0 20.1587 2.31415 22.2632 5.7784L18.2372 9.80444C18.3079 9.46712 18.3433 9.11476 18.3433 8.74735C18.3433 7.84992 18.1327 7.04318 17.7116 6.32714C17.2905 5.60632 16.6561 5.03826 15.8085 4.62296C14.9609 4.20765 13.8919 4 12.6016 4H6.68983V11.6359H5V13.52H6.68983V14.7246H5.00002V16.6087H6.68983V18.6645H9.19221V16.6087H11.4329L5.7784 22.2632ZM13.317 14.7246L14.7688 13.2729C14.1521 13.4436 13.4553 13.5354 12.6503 13.5354L10.2463 13.52H9.19221V14.7246H13.317ZM9.19221 5.89751V11.633H12.3667C13.182 11.633 13.8433 11.5089 14.3508 11.2607C14.8583 11.0077 15.2308 10.664 15.4684 10.2296C15.7059 9.79516 15.8247 9.30109 15.8247 8.74735C15.8247 8.19362 15.7059 7.70193 15.4684 7.27231C15.2308 6.84268 14.8556 6.50615 14.3427 6.26269C13.8352 6.01924 13.1658 5.89751 12.3343 5.89751H9.19221Z" fill="#023A66"/>
<mask id="path-3-outside-1_8675_11531" maskUnits="userSpaceOnUse" x="4" y="3" width="16" height="17" fill="black">
<rect fill="white" x="4" y="3" width="16" height="17"/>
<path fill-rule="evenodd" clip-rule="evenodd" d="M6.68983 14.7246V13.52H5V11.6359H6.68983V4H12.6016C13.8919 4 14.9609 4.20765 15.8085 4.62296C16.6561 5.03826 17.2905 5.60632 17.7116 6.32713C18.1327 7.04318 18.3433 7.84992 18.3433 8.74735C18.3433 9.64957 18.13 10.4611 17.7035 11.1819C17.2824 11.8979 16.6453 12.466 15.7923 12.8861C14.9447 13.3014 13.9352 13.5354 12.6503 13.5354L10.2463 13.52H9.19221V14.7246H16.3183V16.6087H9.19221V18.6645H6.68983V16.6087H5.00002V14.7246H6.68983ZM9.19221 5.89751V11.633H12.3667C13.182 11.633 13.8433 11.5089 14.3508 11.2607C14.8583 11.0077 15.2308 10.664 15.4684 10.2296C15.7059 9.79516 15.8247 9.30109 15.8247 8.74735C15.8247 8.19362 15.7059 7.70194 15.4684 7.27231C15.2308 6.84268 14.8556 6.50615 14.3427 6.26269C13.8352 6.01924 13.1658 5.89751 12.3343 5.89751H9.19221Z"/>
</mask>
<path fill-rule="evenodd" clip-rule="evenodd" d="M6.68983 14.7246V13.52H5V11.6359H6.68983V4H12.6016C13.8919 4 14.9609 4.20765 15.8085 4.62296C16.6561 5.03826 17.2905 5.60632 17.7116 6.32713C18.1327 7.04318 18.3433 7.84992 18.3433 8.74735C18.3433 9.64957 18.13 10.4611 17.7035 11.1819C17.2824 11.8979 16.6453 12.466 15.7923 12.8861C14.9447 13.3014 13.9352 13.5354 12.6503 13.5354L10.2463 13.52H9.19221V14.7246H16.3183V16.6087H9.19221V18.6645H6.68983V16.6087H5.00002V14.7246H6.68983ZM9.19221 5.89751V11.633H12.3667C13.182 11.633 13.8433 11.5089 14.3508 11.2607C14.8583 11.0077 15.2308 10.664 15.4684 10.2296C15.7059 9.79516 15.8247 9.30109 15.8247 8.74735C15.8247 8.19362 15.7059 7.70194 15.4684 7.27231C15.2308 6.84268 14.8556 6.50615 14.3427 6.26269C13.8352 6.01924 13.1658 5.89751 12.3343 5.89751H9.19221Z" fill="white"/>
<path d="M6.68983 13.52H7.68983C7.68983 12.9678 7.24212 12.52 6.68983 12.52V13.52ZM6.68983 14.7246V15.7246C7.24212 15.7246 7.68983 15.2769 7.68983 14.7246H6.68983ZM5 13.52H4C4 14.0723 4.44772 14.52 5 14.52V13.52ZM5 11.6359V10.6359C4.44772 10.6359 4 11.0836 4 11.6359H5ZM6.68983 11.6359V12.6359C7.24212 12.6359 7.68983 12.1882 7.68983 11.6359H6.68983ZM6.68983 4V3C6.13755 3 5.68983 3.44772 5.68983 4H6.68983ZM15.8085 4.62296L15.3685 5.52096V5.52096L15.8085 4.62296ZM17.7116 6.32713L16.8482 6.83158L16.8496 6.83407L17.7116 6.32713ZM17.7035 11.1819L16.8429 10.6727L16.8415 10.675L17.7035 11.1819ZM15.7923 12.8861L16.2323 13.7841L16.2341 13.7832L15.7923 12.8861ZM12.6503 13.5354L12.6439 14.5354H12.6503V13.5354ZM10.2463 13.52L10.2527 12.52H10.2463V13.52ZM9.19221 13.52V12.52C8.63992 12.52 8.19221 12.9678 8.19221 13.52H9.19221ZM9.19221 14.7246H8.19221C8.19221 15.2769 8.63992 15.7246 9.19221 15.7246V14.7246ZM16.3183 14.7246H17.3183C17.3183 14.1723 16.8705 13.7246 16.3183 13.7246V14.7246ZM16.3183 16.6087V17.6087C16.8705 17.6087 17.3183 17.161 17.3183 16.6087H16.3183ZM9.19221 16.6087V15.6087C8.63992 15.6087 8.19221 16.0565 8.19221 16.6087H9.19221ZM9.19221 18.6645V19.6645C9.74449 19.6645 10.1922 19.2168 10.1922 18.6645H9.19221ZM6.68983 18.6645H5.68983C5.68983 19.2168 6.13755 19.6645 6.68983 19.6645V18.6645ZM6.68983 16.6087H7.68983C7.68983 16.0565 7.24212 15.6087 6.68983 15.6087V16.6087ZM5.00002 16.6087H4.00002C4.00002 17.161 4.44774 17.6087 5.00002 17.6087V16.6087ZM5.00002 14.7246V13.7246C4.44774 13.7246 4.00002 14.1723 4.00002 14.7246H5.00002ZM9.19221 11.633H8.19221C8.19221 12.1853 8.63992 12.633 9.19221 12.633V11.633ZM9.19221 5.89751V4.89751C8.63992 4.89751 8.19221 5.34523 8.19221 5.89751H9.19221ZM14.3508 11.2607L14.7902 12.159L14.797 12.1556L14.3508 11.2607ZM15.4684 10.2296L16.3458 10.7094V10.7094L15.4684 10.2296ZM15.4684 7.27231L16.3435 6.78843L15.4684 7.27231ZM14.3427 6.26269L13.9102 7.16432L13.9139 7.16609L14.3427 6.26269ZM5.68983 13.52V14.7246H7.68983V13.52H5.68983ZM5 14.52H6.68983V12.52H5V14.52ZM4 11.6359V13.52H6V11.6359H4ZM6.68983 10.6359H5V12.6359H6.68983V10.6359ZM5.68983 4V11.6359H7.68983V4H5.68983ZM12.6016 3H6.68983V5H12.6016V3ZM16.2485 3.72495C15.2232 3.22259 13.9915 3 12.6016 3V5C13.7924 5 14.6986 5.19272 15.3685 5.52096L16.2485 3.72495ZM18.5751 5.8227C18.042 4.91028 17.2491 4.2152 16.2485 3.72495L15.3685 5.52096C16.0632 5.86132 16.539 6.30236 16.8482 6.83157L18.5751 5.8227ZM19.3433 8.74735C19.3433 7.68647 19.0923 6.70218 18.5736 5.8202L16.8496 6.83407C17.1731 7.38418 17.3433 8.01337 17.3433 8.74735H19.3433ZM18.5641 11.6911C19.0889 10.8042 19.3433 9.81441 19.3433 8.74735H17.3433C17.3433 9.48472 17.1711 10.1179 16.8429 10.6727L18.5641 11.6911ZM16.2341 13.7832C17.2362 13.2897 18.0317 12.5966 18.5655 11.6888L16.8415 10.675C16.5331 11.1993 16.0544 11.6423 15.3505 11.989L16.2341 13.7832ZM12.6503 14.5354C14.062 14.5354 15.2263 14.277 16.2323 13.7841L15.3523 11.9881C14.6631 12.3258 13.8085 12.5354 12.6503 12.5354V14.5354ZM10.2399 14.52L12.6439 14.5354L12.6567 12.5355L10.2527 12.5201L10.2399 14.52ZM9.19221 14.52H10.2463V12.52H9.19221V14.52ZM10.1922 14.7246V13.52H8.19221V14.7246H10.1922ZM9.19221 15.7246H16.3183V13.7246H9.19221V15.7246ZM15.3183 14.7246V16.6087H17.3183V14.7246H15.3183ZM16.3183 15.6087H9.19221V17.6087H16.3183V15.6087ZM10.1922 18.6645V16.6087H8.19221V18.6645H10.1922ZM6.68983 19.6645H9.19221V17.6645H6.68983V19.6645ZM5.68983 16.6087V18.6645H7.68983V16.6087H5.68983ZM6.68983 15.6087H5.00002V17.6087H6.68983V15.6087ZM6.00002 16.6087V14.7246H4.00002V16.6087H6.00002ZM5.00002 15.7246H6.68983V13.7246H5.00002V15.7246ZM10.1922 11.633V5.89751H8.19221V11.633H10.1922ZM12.3667 10.633H9.19221V12.633H12.3667V10.633ZM13.9114 10.3624C13.5876 10.5207 13.0923 10.633 12.3667 10.633V12.633C13.2717 12.633 14.099 12.497 14.7902 12.159L13.9114 10.3624ZM14.591 9.74977C14.4652 9.97983 14.2569 10.1901 13.9047 10.3657L14.797 12.1556C15.4598 11.8252 15.9965 11.3481 16.3458 10.7094L14.591 9.74977ZM14.8247 8.74735C14.8247 9.15362 14.7389 9.47925 14.591 9.74977L16.3458 10.7094C16.6729 10.1111 16.8247 9.44857 16.8247 8.74735H14.8247ZM14.5932 7.75619C14.7389 8.01956 14.8247 8.34087 14.8247 8.74735H16.8247C16.8247 8.04636 16.673 7.38431 16.3435 6.78843L14.5932 7.75619ZM13.9139 7.16609C14.2684 7.33435 14.4722 7.53721 14.5932 7.75619L16.3435 6.78843C15.9895 6.14816 15.4428 5.67794 14.7715 5.3593L13.9139 7.16609ZM12.3343 6.89751C13.0817 6.89751 13.5865 7.00901 13.9102 7.16431L14.7752 5.36107C14.084 5.02946 13.2499 4.89751 12.3343 4.89751V6.89751ZM9.19221 6.89751H12.3343V4.89751H9.19221V6.89751Z" fill="#023A66" mask="url(#path-3-outside-1_8675_11531)"/>
</svg>
